<?xml version="1.0" encoding="UTF-8"?>
<svg width="747px" height="123px" viewBox="0 0 747 123" version="1.1" xmlns="http://www.w3.org/2000/svg" xmlns:xlink="http://www.w3.org/1999/xlink">
    <!-- Generator: Sketch 46 (44423) - http://www.bohemiancoding.com/sketch -->
    <title>Logo Blue</title>
    <desc>Created with Sketch.</desc>
    <defs></defs>
    <g id="UI-Kit" stroke="none" stroke-width="1" fill="none" fill-rule="evenodd">
        <g id="Logos" transform="translate(-346.000000, -426.000000)">
            <g id="Logo-Blue" transform="translate(346.000000, 426.000000)">
                <g>
                    <path d="M287.469241,63.7570427 C287.469241,61.8940143 287.15702,60.3781155 286.533324,59.2115812 C285.911122,58.0480265 285.053634,57.1332728 283.963101,56.4747694 C282.872567,55.8132863 281.528073,55.3655934 279.931861,55.1339253 C278.334154,54.9007674 276.561664,54.7845609 274.613642,54.7845609 C270.406871,54.7845609 265.928214,55.5994962 261.175429,57.2308565 C260.084149,55.2106514 259.266995,53.3066528 258.722476,51.5203505 C258.177209,49.7340482 257.903081,47.5976366 257.903081,45.1103708 C261.33154,43.9453262 264.758505,43.0909106 268.186963,42.5471238 C271.613928,42.003337 274.810087,41.7306987 277.76872,41.7306987 C285.871534,41.7306987 292.201111,43.6726879 296.758944,47.5589011 C301.31603,51.4436244 303.594947,57.6576918 303.594947,66.2040831 L303.594947,101.165848 C300.867866,102.020264 297.556677,102.836689 293.66138,103.613633 C289.767578,104.390578 285.365108,104.779423 280.45696,104.779423 C276.483982,104.779423 272.841151,104.429314 269.529963,103.72984 C266.219521,103.031111 263.37517,101.864577 261.001392,100.233216 C258.623879,98.603346 256.793874,96.504925 255.506895,93.9409331 C254.222904,91.3761963 253.579788,88.2304271 253.579788,84.5006457 C253.579788,80.7723542 254.378268,77.6452078 255.975227,75.1199515 C257.572187,72.59544 259.637478,70.57449 262.168114,69.0600811 C264.70099,67.5449272 267.524426,66.4573537 270.641411,65.7966155 C273.757648,65.1358773 276.873138,64.8058807 279.989375,64.8058807 C282.248871,64.8058807 284.741413,64.923577 287.469241,65.1552451 L287.469241,63.7570427 Z M287.469241,75.7613219 C286.533324,75.605635 285.521219,75.4685709 284.429192,75.3531093 C283.338658,75.2369029 282.366888,75.1787996 281.508653,75.1787996 C277.691038,75.1787996 274.671903,75.8574157 272.451248,77.2176276 C270.23134,78.5770945 269.121386,80.7723542 269.121386,83.801917 C269.121386,85.822867 269.55013,87.3752665 270.406871,88.4643299 C271.263612,89.5511585 272.296631,90.3474709 273.503688,90.8517773 C274.711491,91.3575735 275.995483,91.6682023 277.359397,91.7851537 C278.724057,91.9006153 279.911693,91.9609533 280.923051,91.9609533 C282.092761,91.9609533 283.261723,91.8626247 284.429192,91.6682023 C285.598901,91.4737799 286.611006,91.3002151 287.469241,91.1437833 L287.469241,75.7613219 Z M314.657887,55.7157027 L307.061499,55.7157027 L306.475897,53.3848687 L328.329893,25.5318122 L331.017386,25.5318122 L331.017386,43.1289012 L345.156976,43.1289012 C345.389275,44.2954355 345.546132,45.3435287 345.625308,46.2754153 C345.701496,47.2087918 345.740337,48.1794139 345.740337,49.1902614 C345.740337,50.27709 345.701496,51.3259281 345.625308,52.3360306 C345.546132,53.3468781 345.389275,54.4731871 345.156976,55.7157027 L331.017386,55.7157027 L331.017386,79.3741518 C331.017386,81.7817119 331.213084,83.7237011 331.602987,85.2008643 C331.99065,86.6750479 332.556084,87.8415823 333.295555,88.6967428 C334.037268,89.5511585 334.951523,90.1336808 336.042057,90.4443096 C337.13259,90.7564284 338.41957,90.9113703 339.897765,90.9113703 C341.067475,90.9113703 342.215523,90.8137867 343.346391,90.6193643 C344.475019,90.4256868 345.46845,90.2506322 346.325191,90.0956902 C346.871952,91.5698738 347.259614,93.1051403 347.494154,94.69851 C347.728693,96.2911348 347.844469,97.7101948 347.844469,98.9527104 C347.844469,99.807126 347.825796,100.525223 347.786208,101.10849 C347.747367,101.690267 347.689852,102.255656 347.610677,102.797953 C344.027601,103.653859 340.328003,104.079204 336.510389,104.079204 C329.420426,104.079204 324.005105,102.429221 320.266666,99.1285099 C316.52748,95.825564 314.657887,90.4443096 314.657887,82.9862368 L314.657887,55.7157027 Z M358.500327,55.7157027 L350.905433,55.7157027 L350.319831,53.3848687 L372.173079,25.5318122 L374.860572,25.5318122 L374.860572,43.1289012 L389.000163,43.1289012 C389.233208,44.2954355 389.390066,45.3435287 389.468494,46.2754153 C389.544682,47.2087918 389.58427,48.1794139 389.58427,49.1902614 C389.58427,50.27709 389.544682,51.3259281 389.468494,52.3360306 C389.390066,53.3468781 389.233208,54.4731871 389.000163,55.7157027 L374.860572,55.7157027 L374.860572,79.3741518 C374.860572,81.7817119 375.057018,83.7237011 375.445427,85.2008643 C375.83533,86.6750479 376.400018,87.8415823 377.139489,88.6967428 C377.880454,89.5511585 378.793963,90.1336808 379.88599,90.4443096 C380.975777,90.7564284 382.262756,90.9113703 383.740952,90.9113703 C384.909915,90.9113703 386.05871,90.8137867 387.189578,90.6193643 C388.318953,90.4256868 389.312384,90.2506322 390.169125,90.0956902 C390.714392,91.5698738 391.103548,93.1051403 391.336594,94.69851 C391.57188,96.2911348 391.688403,97.7101948 391.688403,98.9527104 C391.688403,99.807126 391.668982,100.525223 391.629394,101.10849 C391.5913,101.690267 391.533039,102.255656 391.45461,102.797953 C387.870788,103.653859 384.171937,104.079204 380.352828,104.079204 C373.26436,104.079204 367.849039,102.429221 364.109853,99.1285099 C360.370667,95.825564 358.500327,90.4443096 358.500327,82.9862368 L358.500327,55.7157027 Z M435.261197,66.7888401 C435.105833,63.057569 434.072814,60.0481189 432.16438,57.7560204 C430.255946,55.4639219 427.587873,54.3167553 424.159415,54.3167553 C420.264118,54.3167553 417.303992,55.4050738 415.278288,57.5802209 C413.253332,59.7561129 412.046275,62.825156 411.657119,66.7888401 L435.261197,66.7888401 Z M411.539102,78.3245688 C411.851324,82.9862368 413.487124,86.3659089 416.447251,88.4643299 C419.407377,90.562006 423.302674,91.610844 428.133887,91.610844 C430.782539,91.610844 433.487959,91.3575735 436.254628,90.8517773 C439.02055,90.3474709 441.649035,89.6286295 444.14307,88.6967428 C444.999811,90.2506322 445.739283,92.1151504 446.362978,94.2910424 C446.985927,96.4646996 447.336242,98.7970235 447.414671,101.282799 C441.33756,103.613633 434.48139,104.779423 426.846161,104.779423 C421.238129,104.779423 416.428577,104.002478 412.414517,102.447844 C408.403445,100.8947 405.131097,98.7374304 402.599714,95.9812509 C400.067585,93.2228366 398.197245,89.9400033 396.990189,86.1320061 C395.783132,82.3254986 395.180351,78.1696269 395.180351,73.6643907 C395.180351,69.2351357 395.802553,65.078519 397.049197,61.1937957 C398.294347,57.3075826 400.145267,53.9294003 402.599714,51.0555245 C405.053415,48.1794139 408.091224,45.9074281 411.714634,44.2365874 C415.337297,42.5664916 419.563488,41.7306987 424.393207,41.7306987 C428.599978,41.7306987 432.339911,42.4689079 435.611512,43.9453262 C438.88386,45.4209996 441.668455,47.4419497 443.966792,50.0066865 C446.265129,52.5684436 447.999526,55.6196088 449.167741,59.1542228 C450.336704,62.6888369 450.920811,66.4774663 450.920811,70.5163867 C450.920811,71.9928051 450.86255,73.4506006 450.74528,74.8867936 C450.628758,76.3229866 450.490574,77.4701532 450.336704,78.3245688 L411.539102,78.3245688 Z M457.257858,43.1289012 C458.426073,42.8972331 459.536027,42.7214335 460.58772,42.605972 C461.640906,42.4875307 462.788208,42.4301724 464.035599,42.4301724 C465.204561,42.4301724 466.354103,42.5091332 467.481984,42.6625854 C468.612852,42.8182723 469.722806,43.0134396 470.811846,43.2465975 C471.047132,43.6354423 471.261504,44.1978519 471.455709,44.936061 C471.650661,45.6742702 471.825445,46.4512149 471.981555,47.2676399 C472.137666,48.0833201 472.272862,48.8975104 472.390132,49.7146804 C472.507402,50.5311055 472.603757,51.2082317 472.682933,51.7549982 C474.396415,49.3452034 476.501294,47.1886791 478.993089,45.2861703 C481.486378,43.3821717 484.602615,42.4301724 488.341054,42.4301724 C489.121607,42.4301724 490.017189,42.4689079 491.029294,42.5471238 C492.041399,42.6245948 492.781617,42.7408013 493.249202,42.8972331 C493.405313,43.6726879 493.522582,44.566584 493.599517,45.5766865 C493.67944,46.5867891 493.717534,47.6356271 493.717534,48.7239456 C493.717534,50.044677 493.657779,51.481615 493.542003,53.0355043 C493.424733,54.5893936 493.210361,56.065067 492.89814,57.4640144 C492.041399,57.3075826 491.087555,57.2308565 490.036609,57.2308565 C488.984917,57.2308565 488.341054,57.2308565 488.108755,57.2308565 C486.782935,57.2308565 485.303992,57.3671756 483.666698,57.6383241 C482.031644,57.9109624 480.473526,58.6290589 478.993089,59.7955933 C477.511905,60.9606378 476.286176,62.7089495 475.311418,65.0405284 C474.338154,67.3698726 473.849655,70.6333381 473.849655,74.8294352 L473.849655,103.498172 C472.44914,103.72984 471.047132,103.885527 469.643631,103.962998 C468.24237,104.041214 466.879203,104.079204 465.55413,104.079204 C464.229056,104.079204 462.886057,104.041214 461.522143,103.962998 C460.158976,103.885527 458.737547,103.72984 457.257858,103.498172 L457.257858,43.1289012 Z M501.496176,43.1289012 C502.585963,42.8972331 503.677243,42.7214335 504.76703,42.605972 C505.85831,42.4875307 507.065367,42.4301724 508.39044,42.4301724 C509.714766,42.4301724 510.882981,42.4875307 511.895833,42.605972 C512.908685,42.7214335 513.960378,42.8972331 515.050911,43.1289012 C515.283957,43.5177459 515.499823,44.0816454 515.694027,44.8198545 C515.888232,45.5573188 516.06451,46.3357533 516.219874,47.1499436 C516.375984,47.9663687 516.511181,48.7619362 516.62845,49.5388808 C516.747214,50.3158255 516.843569,50.9765637 516.921251,51.5203505 C517.542706,50.3560508 518.3621,49.1902614 519.375699,48.023727 C520.387804,46.8601723 521.59486,45.8120792 522.996868,44.8779578 C524.398876,43.9453262 525.976415,43.1877493 527.730232,42.605972 C529.482555,42.0219599 531.450745,41.7306987 533.631812,41.7306987 C543.057458,41.7306987 549.094981,45.3055381 551.74438,52.4537269 C553.301752,49.5783613 555.502987,47.0739625 558.345843,44.936061 C561.190194,42.7989045 564.793437,41.7306987 569.157065,41.7306987 C576.011741,41.7306987 581.055833,43.6168194 584.288593,47.3845913 C587.522847,51.1516183 589.139227,57.037179 589.139227,65.0405284 L589.139227,103.38122 C586.335211,103.847536 583.567795,104.079204 580.842208,104.079204 C578.115127,104.079204 575.349205,103.847536 572.545189,103.38122 L572.545189,69.3505973 C572.545189,65.1552451 572.018596,61.9320049 570.966156,59.6793868 C569.915957,57.4260238 567.793151,56.2989698 564.599232,56.2989698 C563.273412,56.2989698 561.97,56.4941371 560.685262,56.8814921 C559.398283,57.2688471 558.230068,57.9876885 557.179122,59.0372714 C556.127429,60.0861095 555.270688,61.5632727 554.607404,63.4665264 C553.944868,65.3682903 553.613973,67.8369333 553.613973,70.866496 L553.613973,103.38122 C550.80921,103.847536 548.043288,104.079204 545.316954,104.079204 C542.59062,104.079204 539.823951,103.847536 537.019188,103.38122 L537.019188,69.3505973 C537.019188,65.1552451 536.494089,61.9320049 535.441649,59.6793868 C534.389957,57.4260238 532.267898,56.2989698 529.073979,56.2989698 C527.751147,56.2989698 526.425327,56.4941371 525.100253,56.8814921 C523.777421,57.2688471 522.588291,58.0271689 521.536599,59.1542228 C520.484159,60.279787 519.646838,61.853044 519.024637,63.8739941 C518.400941,65.8934543 518.08872,68.535662 518.08872,71.7983827 L518.08872,103.38122 C515.283957,103.847536 512.520276,104.079204 509.792448,104.079204 C507.065367,104.079204 504.300939,103.847536 501.496176,103.38122 L501.496176,43.1289012 Z M622.933818,92.1926214 C627.2967,92.1926214 630.432357,90.5813737 632.340044,87.3558987 C634.249225,84.1326585 635.203815,79.4896134 635.203815,73.4304879 C635.203815,67.3698726 634.249225,62.7283173 632.340044,59.5035872 C630.432357,56.2781123 627.2967,54.6668646 622.933818,54.6668646 C618.649365,54.6668646 615.552549,56.2781123 613.644115,59.5035872 C611.734187,62.7283173 610.779597,67.3698726 610.779597,73.4304879 C610.779597,79.4896134 611.734187,84.1326585 613.644115,87.3558987 C615.552549,90.5813737 618.649365,92.1926214 622.933818,92.1926214 Z M622.933818,104.779423 C618.02567,104.779423 613.759891,103.982366 610.137974,102.389741 C606.515311,100.797861 603.515597,98.5832333 601.139578,95.7466031 C598.763559,92.9107179 596.971648,89.589894 595.765339,85.7826417 C594.556789,81.9753894 593.95326,77.858998 593.95326,73.4304879 C593.95326,69.0019778 594.556789,64.8446162 595.765339,60.9606378 C596.971648,57.0759145 598.763559,53.7156102 601.139578,50.8797249 C603.515597,48.0430948 606.515311,45.8120792 610.137974,44.1784841 C613.759891,42.5471238 618.02567,41.7306987 622.933818,41.7306987 C627.841966,41.7306987 632.125672,42.5471238 635.787923,44.1784841 C639.44868,45.8120792 642.486488,48.0430948 644.903589,50.8797249 C647.318449,53.7156102 649.109613,57.0759145 650.279322,60.9606378 C651.447538,64.8446162 652.030899,69.0019778 652.030899,73.4304879 C652.030899,77.858998 651.447538,81.9753894 650.279322,85.7826417 C649.109613,89.589894 647.318449,92.9107179 644.903589,95.7466031 C642.486488,98.5832333 639.44868,100.797861 635.787923,102.389741 C632.125672,103.982366 627.841966,104.779423 622.933818,104.779423 Z M673.335145,77.1595243 C668.971517,75.915519 665.563226,74.0711134 663.110272,71.623328 C660.655824,69.1770325 659.428601,65.5053544 659.428601,60.6097836 C659.428601,54.7048552 661.552153,50.0841574 665.798512,46.7432209 C670.043377,43.4015395 675.829181,41.7306987 683.151442,41.7306987 C686.189997,41.7306987 689.188218,42.003337 692.149091,42.5471238 C695.109965,43.0909106 698.108932,43.9058458 701.146741,44.9949092 C700.99063,47.0136245 700.601474,49.1113006 699.977031,51.2879375 C699.355576,53.4623397 698.615358,55.3655934 697.758617,56.9991884 C695.888277,56.2214988 693.82448,55.5413929 691.564237,54.9581257 C689.306234,54.3763484 686.929469,54.0850872 684.436927,54.0850872 C681.787528,54.0850872 679.724477,54.4925549 678.242547,55.308235 C676.762857,56.1246601 676.022638,57.4260238 676.022638,59.2115812 C676.022638,60.9211574 676.548485,62.1256823 677.600177,62.825156 C678.65187,63.5238848 680.152474,64.1861128 682.099002,64.8058807 L688.760221,66.7888401 C690.942035,67.409353 692.90873,68.166185 694.6618,69.0600811 C696.414123,69.9539771 697.914728,71.0609184 699.160625,72.3809049 C700.407269,73.7016364 701.380533,75.3337416 702.081164,77.2757308 C702.783288,79.2184649 703.13435,81.5872895 703.13435,84.3836943 C703.13435,87.2598049 702.530075,89.9400033 701.322272,92.4257793 C700.115215,94.9123001 698.361398,97.0680795 696.063808,98.8931173 C693.765471,100.72039 690.980129,102.157328 687.707781,103.205421 C684.436927,104.255004 680.735835,104.779423 676.606746,104.779423 C674.736406,104.779423 673.024418,104.720575 671.466299,104.604368 C669.907434,104.486672 668.408323,104.292994 666.966728,104.021846 C665.525879,103.749208 664.103703,103.419956 662.701695,103.031111 C661.298941,102.643011 659.779663,102.13796 658.143862,101.515957 C658.30072,99.4175363 658.670456,97.3004925 659.253817,95.1648258 C659.837924,93.0291591 660.59831,90.9493609 661.532733,88.9291558 C664.103703,89.9400033 666.538731,90.6968353 668.837068,91.2018866 C671.135404,91.7076828 673.530844,91.9609533 676.022638,91.9609533 C677.114666,91.9609533 678.302302,91.8626247 679.586293,91.6682023 C680.872525,91.4737799 682.060908,91.1244156 683.151442,90.6193643 C684.242722,90.114313 685.158472,89.4535748 685.897943,88.6386396 C686.638162,87.8229594 687.006404,86.7547536 687.006404,85.4325324 C687.006404,83.569504 686.442463,82.2286599 685.313089,81.4129797 C684.182967,80.5980445 682.605428,79.8769683 680.581218,79.2564555 L673.335145,77.1595243 Z M713.753608,55.7157027 L706.159461,55.7157027 L705.573112,53.3848687 L727.425613,25.5318122 L730.113106,25.5318122 L730.113106,43.1289012 L744.253444,43.1289012 C744.487236,44.2954355 744.6426,45.3435287 744.721775,46.2754153 C744.79871,47.2087918 744.838298,48.1794139 744.838298,49.1902614 C744.838298,50.27709 744.79871,51.3259281 744.721775,52.3360306 C744.6426,53.3468781 744.487236,54.4731871 744.253444,55.7157027 L730.113106,55.7157027 L730.113106,79.3741518 C730.113106,81.7817119 730.309552,83.7237011 730.697961,85.2008643 C731.088611,86.6750479 731.652552,87.8415823 732.392023,88.6967428 C733.133735,89.5511585 734.048738,90.1336808 735.138524,90.4443096 C736.228311,90.7564284 737.516037,90.9113703 738.99498,90.9113703 C740.163942,90.9113703 741.311991,90.8137867 742.442859,90.6193643 C743.571487,90.4256868 744.564918,90.2506322 745.421659,90.0956902 C745.967673,91.5698738 746.357576,93.1051403 746.589874,94.69851 C746.825161,96.2911348 746.940937,97.7101948 746.940937,98.9527104 C746.940937,99.807126 746.921516,100.525223 746.882675,101.10849 C746.843834,101.690267 746.78632,102.255656 746.707144,102.797953 C743.124816,103.653859 739.424471,104.079204 735.606856,104.079204 C728.516894,104.079204 723.10232,102.429221 719.362387,99.1285099 C715.623948,95.825564 713.753608,90.4443096 713.753608,82.9862368 L713.753608,55.7157027 Z M162.88399,24.6811211 C166.26091,24.2125706 169.509355,23.977178 172.631568,23.977178 C175.923336,23.977178 179.173276,24.2125706 182.379893,24.6811211 L203.268094,67.9181288 L224.788953,24.6811211 C227.405487,24.2125706 230.315568,23.977178 233.523679,23.977178 C236.731043,23.977178 239.809933,24.2125706 242.764831,24.6811211 L247.068705,104.076225 C243.862834,104.54552 240.824279,104.779423 237.955279,104.779423 C235.084039,104.779423 232.258362,104.54552 229.473766,104.076225 L227.194103,46.6724541 L208.711051,86.347286 C207.528644,86.5037178 206.305902,86.6422717 205.03909,86.7577333 C203.773026,86.8754296 202.508455,86.9335329 201.241643,86.9335329 C200.14364,86.9335329 199.047878,86.8947974 197.951369,86.8165815 C196.854113,86.7383656 195.715028,86.5811888 194.53262,86.347286 L177.316381,45.8500698 L175.54389,104.076225 C172.843699,104.54552 170.227165,104.779423 167.694289,104.779423 C164.993351,104.779423 162.207262,104.54552 159.339756,104.076225 L162.88399,24.6811211 Z" id="Shape" fill="#263238"></path>
                    <g id="icon" fill="#1875F0">
                        <path d="M97.4086496,12.2149956 L98.0547534,25.2018156 C108.612015,36.8336381 112.779198,53.3066528 107.523722,68.7889326 C99.6786028,91.8998704 73.8098006,104.048663 49.7448606,95.9238925 C25.6791736,87.7998671 12.530027,62.4780264 20.3751467,39.3670886 C25.6478021,23.8334097 39.0628596,13.251915 54.5999761,10.4502958 L62.9948442,0.558590938 C36.8048574,-0.148331866 12.0960544,16.0639631 3.25526255,42.1083698 C-7.60675118,74.1083591 9.59903112,108.831007 41.6861158,119.664282 C73.7732005,130.496813 108.591101,113.336988 119.453862,81.3369986 C128.279715,55.3350519 118.573218,27.5341394 97.4086496,12.2149956 Z" id="Shape"></path>
                        <path d="M82.3674075,50.536414 L81.9229777,32.38064 L81.5666869,21.9332298 L81.325425,12.8825321 C81.325425,12.8825321 81.3754701,8.51808458 81.2230941,7.49233884 C81.1909757,7.27631396 81.1230041,7.10125931 81.0415875,6.94780716 L81.0109629,6.88374461 L80.9758567,6.8278761 C80.808542,6.53959462 80.5441249,6.30569182 80.2027729,6.19023024 C79.8539516,6.07253393 79.4924322,6.10158555 79.1787171,6.23641487 L79.1592966,6.24386401 L79.0509902,6.2989876 C78.9023489,6.3712442 78.7507199,6.46510328 78.6028257,6.60812665 C77.8566318,7.32994772 75.2386041,10.8273161 75.2386041,10.8273161 L69.53347,17.8712171 L62.8871903,25.9542722 L51.4754281,40.1068816 C51.4754281,40.1068816 46.2386259,46.6248738 47.3956373,54.6483359 C48.5533956,62.671053 54.5341509,66.5796136 59.1741474,68.1461664 C63.813397,69.7127193 70.9451881,70.231179 76.7519063,64.5586636 C82.5578774,58.8861481 82.3674075,50.536414 82.3674075,50.536414 Z" id="Shape"></path>
                    </g>
                </g>
            </g>
        </g>
    </g>
</svg>