<?xml version="1.0" encoding="UTF-8"?>
<svg width="26" height="25" viewBox="0 0 26 25" fill="none" xmlns="http://www.w3.org/2000/svg">
<path d="M25.0012 12.4997C25.0012 19.4038 19.4054 24.9997 12.5012 24.9997C5.59707 24.9997 0.0012207 19.4038 0.0012207 12.4997C0.0012207 6.50112 4.2287 1.48822 9.86461 0.277824L10.2184 0.284499L10.472 0.16435C10.6767 0.130975 10.8814 0.10205 11.0884 0.0798001L11.5267 0.09315L11.8315 0.0175003C11.8916 0.0152753 11.9494 0.0108254 12.0095 0.00860037L12.5012 0.0775751L12.8261 0.00415039C12.8884 0.00637538 12.9507 0.00860037 13.013 0.0108254L13.6983 0.184375L14.5082 0.162125C14.6038 0.1777 14.6995 0.193275 14.7952 0.211075L17.7611 2.10009L20.9962 3.33051C23.4593 5.61113 25.0012 8.87519 25.0012 12.4997Z" fill="#1C58D9"/>
<path d="M13.1086 3.94525C13.923 4.20558 13.8896 3.6916 14.4036 4.29013C14.6995 4.63278 15.2335 5.26245 15.8676 5.4182C15.9566 5.44045 16.1547 5.25132 16.1547 5.0978C16.1547 4.9465 15.7163 4.6261 15.4649 4.55935C15.2113 4.49038 15.565 4.0209 15.2291 3.8785C14.8931 3.73388 14.5215 3.19766 14.388 2.77713C14.2523 2.35661 13.6627 2.71038 13.4624 2.62583C13.2599 2.54128 13.0085 2.59246 12.7905 2.91286C12.5702 3.23103 12.8995 3.8785 13.1086 3.94525Z" fill="#C9D81F"/>
<path d="M17.5187 15.7198C17.5098 15.5441 15.9078 14.6674 15.712 14.6563C15.3916 14.6385 14.9556 14.4761 14.6619 14.6474C14.535 14.7186 14.4327 14.8165 14.3526 14.9366C14.297 15.0412 13.9855 14.8454 13.8631 14.9099C13.5738 15.0635 13.4092 14.5628 13.4915 14.3715C13.6918 13.902 12.9798 14.2002 12.9063 14.0711C12.9931 14.2224 12.8819 12.7339 12.6327 13.5749C12.4435 14.2113 11.7026 13.4815 11.7916 13.0187C11.9296 12.3045 13.0065 12.1999 13.2423 12.3267C13.3625 12.389 13.7986 13.0254 13.8542 13.0076C13.9743 12.9697 13.783 12.26 13.7585 12.1643C13.6717 11.8194 14.337 11.7015 14.3837 11.341C14.4238 11.034 14.6307 11.1408 14.8376 10.9762C15.138 10.7381 14.9044 10.2953 15.2893 10.0661C15.4206 9.98826 15.9101 9.93263 15.9746 9.79468C16.0347 9.67008 15.5607 9.32521 15.9679 9.22731C16.3328 9.13831 16.7066 9.29628 16.8045 8.76896C16.8935 8.29059 16.3662 8.18156 16.206 7.80999C16.157 7.69874 16.097 7.05794 15.87 7.17587C15.5897 7.32272 15.4161 7.67649 15.1892 7.25597C14.7776 6.49724 13.7585 6.17017 14.2369 7.36276C14.4839 7.97909 13.5627 9.85253 13.4292 8.11926C13.3825 7.51851 11.5825 7.33606 12.1877 6.67079C12.8018 5.9944 13.6406 5.96992 13.8675 4.93307C14.1835 3.49351 13.1867 4.71725 12.6772 4.43913C11.9162 4.02305 12.5615 4.24778 12.1676 4.78845C12.0186 4.99315 11.5291 4.6594 11.311 4.69055C11.1085 4.7217 10.5901 5.1667 10.4522 4.88857C10.1963 4.37905 8.41185 4.06533 7.9268 4.24555C6.92111 4.6238 6.56956 4.11205 5.56386 3.91403C5.21454 3.84505 3.5013 3.7961 3.61255 4.39018C3.65705 4.6238 3.8217 4.80625 3.89289 5.02652C3.99969 5.3536 3.50797 5.10217 3.39672 5.18227C3.3678 5.20452 3.97522 5.63172 4.02417 5.6829C4.18882 5.84977 3.39227 6.05447 3.3144 6.33482C3.1542 6.90664 4.40464 6.74199 4.17547 7.42729C4.10649 7.63644 3.39005 7.97686 3.32107 8.67551C3.30772 8.80901 4.21107 7.80776 4.79402 8.01914C5.31021 8.20604 5.26349 6.80652 5.90429 6.80652C7.09688 6.80652 7.32606 7.96796 7.95573 8.74671C8.24943 9.10938 8.48528 9.26068 8.53645 9.73461C8.5854 10.1774 8.48973 10.7136 8.64993 11.1341C8.80345 11.5368 9.11495 11.5635 9.31965 11.8884C9.5644 12.2711 9.70235 12.6427 10.0339 12.972C10.5145 13.4548 11.3355 14.1935 12.0898 14.08C12.2388 14.0578 12.8018 14.3782 12.9286 14.4738C13.1266 14.6229 13.2267 14.8476 13.3691 15.039C13.5026 15.217 13.9232 15.1057 14.1101 15.1903C14.2747 15.2659 13.6806 16.5164 13.9031 16.8457C14.1457 17.2084 14.1457 17.6133 14.5106 17.8981C14.8554 18.1673 14.9578 18.1896 15.0023 18.6568C15.0712 19.4178 14.8488 20.1876 14.6663 20.8974C14.5706 21.2623 14.762 21.665 14.6218 22.0121C14.4438 22.4482 14.3237 22.8198 14.4794 23.3026C14.7486 24.1414 16.2594 24.2794 15.3627 23.5473C14.9823 23.2359 15.7743 22.4838 15.5274 22.4104C15.1024 22.2324 15.6052 22.0722 15.6609 21.8875C15.7721 21.5204 17.4587 20.0007 17.5833 19.7493C17.6878 19.5379 17.6211 19.3199 17.7924 19.1374C17.9815 18.9349 18.2441 19.0061 18.4577 18.8637C18.9027 18.5656 18.7425 18.0605 18.9249 17.6489C19.2898 16.8323 19.4434 17.155 18.945 16.5186C18.7625 16.2939 17.5521 16.3784 17.5187 15.7198Z" fill="#C9D81F"/>
<path d="M8.50742 3.36448C8.81447 3.68488 9.11707 3.19538 9.16824 3.36448C9.21942 3.53358 9.22609 3.85175 9.59321 3.87623C9.96034 3.90293 9.25279 4.13655 9.48864 4.2389C9.72449 4.33903 10.2296 4.65943 10.4142 4.52593C10.5989 4.3902 10.8192 4.29008 10.9015 4.3902C10.9861 4.49255 11.4911 4.37463 11.3465 4.20553C11.2041 4.03643 10.817 3.63816 10.8325 3.40898C10.8503 3.17981 11.2887 2.59018 10.7992 2.64136C10.481 2.67473 10.412 2.96176 10.412 3.13086C10.412 3.29996 9.95811 2.87943 9.87356 2.88611C9.78901 2.89501 9.46861 2.37436 9.35291 2.37436C9.23499 2.37436 8.44289 2.12071 8.51187 2.37436C8.58084 2.62578 8.20037 3.04631 8.50742 3.36448Z" fill="#C9D81F"/>
<path d="M15.565 5.77189C15.3269 5.63616 14.8752 5.01539 14.6728 5.21564C14.4703 5.41811 14.7239 5.87201 14.8908 6.07449C15.0599 6.27696 15.7675 6.71528 15.6651 6.51281C15.565 6.31256 16.0367 6.04111 15.565 5.77189Z" fill="#C9D81F"/>
<path d="M8.97256 1.49095C9.09716 1.47983 9.28628 1.9048 9.46651 1.95152C9.64673 1.99602 9.73573 2.20962 9.80248 2.2608C9.87146 2.31197 10.6213 2.0205 10.8015 1.95152C11.0107 1.87365 10.5768 1.4687 10.4322 1.17723C10.2853 0.885752 10.3988 1.66005 10.1852 1.53322C9.97158 1.4064 10.005 1.23285 9.74686 1.23285C9.48876 1.23285 9.66898 0.705528 9.34191 0.816778C9.01483 0.930252 8.85019 1.50208 8.97256 1.49095Z" fill="#C9D81F"/>
<path d="M11.6757 2.50119C11.4554 2.54569 11.4954 2.69254 11.3731 2.81491C11.2507 2.93951 11.2618 3.10639 11.3731 3.25324C11.4865 3.40009 11.6645 3.65596 11.8003 3.40899C11.936 3.16201 11.8003 2.96176 11.8003 2.80379C11.8003 2.64804 11.7847 2.47894 11.6757 2.50119Z" fill="#C9D81F"/>
<path d="M12.125 3.28667C12.1806 3.4224 12.283 3.05082 12.501 2.85947C12.7191 2.66813 12.3942 2.18753 12.1918 2.43228C12.056 2.60138 12.0694 3.15095 12.125 3.28667Z" fill="#C9D81F"/>
<path d="M12.0852 3.45572C11.9672 3.62037 11.876 4.06092 12.0852 4.09429C12.2943 4.12989 12.4211 3.89182 12.3299 3.72272C12.2365 3.55585 12.1341 3.38675 12.0852 3.45572Z" fill="#C9D81F"/>
<path d="M12.9328 0.616522C12.7303 0.707747 13.2242 0.874622 12.8883 0.965846C12.5501 1.05485 12.5389 1.33742 12.2475 1.09935C11.956 0.863497 11.6378 1.17722 11.8581 1.32407C12.0784 1.47092 12.4499 1.81802 12.4388 2.00937C12.4277 2.20072 12.7859 2.28972 13.1241 2.26747C13.4601 2.24522 13.865 2.34534 13.8762 2.20072C13.8873 2.05387 13.9273 1.99379 13.8873 1.88699C13.8294 1.72902 13.6848 1.57327 13.3377 1.70677C12.9884 1.84249 12.7637 1.77352 12.7147 1.60664C12.6635 1.43532 13.3956 1.10825 13.7182 1.33519C14.043 1.55992 14.3479 1.2106 14.112 1.05485C13.8762 0.896871 14.0341 0.729997 14.1966 0.707747C14.3145 0.692172 14.4213 0.394023 14.5081 0.162624C14.0186 0.0847495 13.5202 0.0335747 13.0129 0.0135498C13.0151 0.327274 13.133 0.527523 12.9328 0.616522Z" fill="#C9D81F"/>
<path d="M9.94927 0.336241C10.174 0.431916 10.5411 0.334016 10.4721 0.164917C10.2697 0.198292 10.0672 0.236117 9.86694 0.278392C9.88474 0.300641 9.91144 0.320666 9.94927 0.336241Z" fill="#C9D81F"/>
<path d="M10.0873 0.514248C9.77135 0.351824 9.78915 0.750097 9.93377 0.908071C10.0806 1.06382 10.4967 0.725622 10.0873 0.514248Z" fill="#C9D81F"/>
<path d="M12.0095 0.00917462C12.2454 0.0536744 12.4011 0.236124 12.4389 0.371848C12.4812 0.514248 12.8216 0.204974 12.8261 0.00249965C12.7193 0.00249965 12.6103 0.000274658 12.5012 0.000274658C12.3366 0.000274658 12.1742 0.00249965 12.0095 0.00917462Z" fill="#C9D81F"/>
<path d="M11.3488 0.476476C11.2064 0.672275 11.3288 0.910349 11.4979 0.712325C11.667 0.5143 11.5312 0.0203524 11.667 0.233952C11.8005 0.447551 12.0497 0.785749 12.2165 0.801324C12.3834 0.816899 12.2388 0.6033 12.2165 0.425301C12.1987 0.276226 11.796 0.0782022 11.8316 0.0181274C11.5824 0.0314774 11.3354 0.0515023 11.0907 0.0782022C11.2665 0.193902 11.4511 0.336301 11.3488 0.476476Z" fill="#C9D81F"/>
<path d="M12.0853 2.16295C12.2833 2.24082 12.0853 1.76022 12.0853 1.76022C11.8783 1.88482 11.8895 2.08507 12.0853 2.16295Z" fill="#C9D81F"/>
<path d="M11.3733 1.8493C11.4067 1.98502 11.6203 2.02952 11.7337 1.8493C11.845 1.66907 11.7271 1.01492 11.5735 1.21962C11.4133 1.43322 11.2287 1.3331 10.9038 1.21962C10.5767 1.10837 11.3399 1.7158 11.3733 1.8493Z" fill="#C9D81F"/>
<path d="M13.5714 13.3213C13.8495 13.2879 14.0097 13.6239 14.3279 13.6083C14.6483 13.5928 15.1111 14.0645 15.3803 13.7863C15.5984 13.5594 14.4213 13.3747 14.0342 13.1722C13.647 12.9698 13.2933 13.3547 13.5714 13.3213Z" fill="#C9D81F"/>
<path d="M14.942 0.672271C15.3291 0.856945 15.2624 0.852495 15.0265 1.03049C14.7907 1.21072 14.8752 1.60454 15.3981 1.57562C15.9188 1.54892 16.2392 1.03049 16.475 1.76029C16.7108 2.49009 16.5417 3.28886 16.8466 3.51136C17.1492 3.73608 16.8977 3.88738 16.8466 4.09876C16.7954 4.30791 16.9311 4.45921 17.167 4.39246C17.4028 4.32571 17.3361 4.76403 17.167 4.9487C16.9979 5.13338 16.7976 5.48715 17.3183 6.12572C17.8389 6.7643 17.9057 6.68197 18.0748 6.90002C18.2439 7.11807 18.3774 6.81992 18.4285 6.56405C18.4797 6.3104 18.3106 5.4204 18.9002 5.4204C19.4899 5.41818 19.6567 4.94648 19.7257 4.79518C19.7925 4.64388 20.2642 4.66168 20.5156 4.44141C20.7403 4.24783 20.9895 4.08318 20.9962 3.32891C19.2985 1.75584 17.1625 0.647796 14.7951 0.209473C14.7484 0.385247 14.7506 0.581046 14.942 0.672271Z" fill="#C9D81F"/>
</svg>
