<svg width="60" height="56" viewBox="0 0 60 56" fill="none" xmlns="http://www.w3.org/2000/svg">
<path d="M34.6743 44.8918L29.7226 44.6449L25.3998 51.3434C24.1886 48.8373 24.2725 45.7768 25.8935 43.2661C27.5146 40.7553 30.2676 39.4184 33.0532 39.4929L44.163 22.2948C42.9519 19.784 43.0358 16.7235 44.6568 14.2128C46.2779 11.702 49.0309 10.3651 51.8165 10.4396L47.489 17.1428L49.7483 21.5494L54.6953 21.7963L59.0228 15.0932C60.2339 17.5993 60.1501 20.6597 58.5243 23.1705C56.9033 25.6813 54.1503 27.0182 51.3647 26.9483L40.2641 44.1418C41.4753 46.6526 41.3914 49.713 39.7703 52.2238C38.1493 54.7346 35.3963 56.0715 32.6107 55.997L36.9382 49.2985L34.6743 44.8918Z" fill="#808F95"/>
<path d="M34.6743 44.8918L29.7226 44.6449L25.3998 51.3434C24.1886 48.8373 24.2725 45.7768 25.8935 43.2661C27.5146 40.7553 30.2676 39.4184 33.0532 39.4929L44.163 22.2948C42.9519 19.784 43.0358 16.7235 44.6568 14.2128C46.2779 11.702 49.0309 10.3651 51.8165 10.4396L47.489 17.1428L49.7482 21.5494" fill="#AABBC1"/>
<path d="M31.3437 1.54717L9.03084 3.81106L5.50923 4.16975C2.9146 4.43061 2.50002 5.80478 2.73759 8.39475L5.97971 43.4385C6.21728 46.0285 6.80421 46.5083 9.39884 46.2474L12.9205 45.8887L35.238 43.6295C37.8326 43.3686 39.7425 41.0535 39.5049 38.4635L36.4817 5.76752C36.2395 3.17289 33.9383 1.28631 31.3437 1.54717Z" fill="#3D4247"/>
<path d="M29.6576 0.7461L7.4426 3.92766L3.93962 4.43075C1.35431 4.79875 0.995631 6.19156 1.34034 8.76755L5.98458 43.639C6.32463 46.215 6.93486 46.6715 9.51551 46.3035L13.0231 45.8004L35.2335 42.6188C37.8142 42.2508 39.6309 39.8611 39.2862 37.2805L34.954 4.74285C34.6093 2.16686 32.2383 0.378101 29.6576 0.7461Z" fill="#CFCFCF"/>
<path d="M28.1948 0.0752979L6.09619 4.03944L13.1021 45.6792L35.1961 41.7151C37.7627 41.2539 39.4956 38.8037 39.0671 36.2417L33.6263 3.88106C33.193 1.31904 30.7614 -0.385866 28.1948 0.0752979Z" fill="#1C58D9"/>
<path d="M2.61192 4.66351C0.0452456 5.12467 -0.271513 6.52214 0.161701 9.08881L5.99845 43.7692C6.43166 46.3359 7.05121 46.7691 9.61788 46.308L13.1069 45.6838L6.09627 4.03931L2.61192 4.66351Z" fill="#3D4247"/>
<path d="M28.9773 16.2254L15.2868 18.6802L14.3784 13.2627L28.0643 10.8079L28.9773 16.2254Z" fill="white"/>
</svg>
