<svg width="47" height="42" viewBox="0 0 47 42" fill="none" xmlns="http://www.w3.org/2000/svg">
<g id="ConnectAndCollaborate">
<path id="Vector" d="M23.5256 5.97496H42.3639C42.9281 5.97091 43.4876 6.08025 44.0102 6.29669C44.5328 6.51313 45.0082 6.83241 45.4092 7.23622C45.8102 7.64004 46.1288 8.12043 46.3469 8.64982C46.5649 9.17921 46.678 9.74718 46.6797 10.3211V30.195C46.6774 30.7686 46.5639 31.3361 46.3456 31.865C46.1273 32.3939 45.8086 32.8737 45.4077 33.2771C45.0068 33.6804 44.5315 33.9993 44.0092 34.2155C43.4869 34.4317 42.9278 34.5409 42.3639 34.5368H37.8323V41.9999L31.0264 34.5368H23.5256C22.9617 34.5409 22.4026 34.4317 21.8803 34.2155C21.358 33.9993 20.8827 33.6804 20.4818 33.2771C20.0809 32.8737 19.7622 32.3939 19.5439 31.865C19.3256 31.3361 19.2121 30.7686 19.2098 30.195V10.3211C19.2115 9.74718 19.3246 9.17921 19.5426 8.64982C19.7607 8.12043 20.0793 7.64004 20.4803 7.23622C20.8813 6.83241 21.3567 6.51313 21.8793 6.29669C22.4019 6.08025 22.9614 5.97091 23.5256 5.97496Z" fill="#BB8D21"/>
<path id="Vector_2" d="M35.044 0.000108462H4.31576C3.75153 -0.0039402 3.19206 0.105394 2.66947 0.321835C2.14688 0.538276 1.67144 0.857561 1.27045 1.26137C0.86947 1.66518 0.550827 2.14557 0.332809 2.67496C0.114791 3.20435 0.00169064 3.77232 0 4.34628V24.2026C0.00225741 24.7762 0.115776 25.3437 0.334047 25.8726C0.552319 26.4015 0.871055 26.8813 1.27198 27.2847C1.67291 27.688 2.14814 28.0069 2.67046 28.2231C3.19277 28.4393 3.75189 28.5484 4.31576 28.5444H8.85163V36.0075L15.6576 28.5444H35.044C35.6079 28.5484 36.167 28.4393 36.6893 28.2231C37.2116 28.0069 37.6868 27.688 38.0878 27.2847C38.4887 26.8813 38.8074 26.4015 39.0257 25.8726C39.244 25.3437 39.3575 24.7762 39.3597 24.2026V4.34628C39.3581 3.77232 39.245 3.20435 39.0269 2.67496C38.8089 2.14557 38.4903 1.66518 38.0893 1.26137C37.6883 0.857561 37.2129 0.538276 36.6903 0.321835C36.1677 0.105394 35.6082 -0.0039402 35.044 0.000108462Z" fill="#FFBC1F"/>
<path id="Vector_3" d="M9.19782 11.4363C9.74533 11.4354 10.2808 11.5998 10.7364 11.9087C11.192 12.2176 11.5472 12.657 11.7571 13.1714C11.967 13.6858 12.0222 14.252 11.9156 14.7982C11.809 15.3445 11.5454 15.8463 11.1583 16.2402C10.7711 16.634 10.2778 16.9021 9.74078 17.0105C9.20375 17.1189 8.64715 17.0629 8.14148 16.8493C7.63581 16.6358 7.20381 16.2744 6.90016 15.811C6.59651 15.3475 6.43488 14.8029 6.43573 14.2459C6.43687 13.5011 6.72825 12.7872 7.24599 12.2605C7.76374 11.7338 8.46562 11.4374 9.19782 11.4363Z" fill="white"/>
<path id="Vector_4" d="M19.689 11.4363C20.2365 11.4354 20.772 11.5998 21.2276 11.9087C21.6832 12.2176 22.0384 12.657 22.2483 13.1714C22.4583 13.6858 22.5134 14.252 22.4068 14.7982C22.3002 15.3445 22.0366 15.8463 21.6495 16.2402C21.2623 16.634 20.769 16.9021 20.232 17.0105C19.695 17.1189 19.1384 17.0629 18.6327 16.8493C18.127 16.6358 17.695 16.2744 17.3914 15.811C17.0877 15.3475 16.9261 14.8029 16.9269 14.2459C16.9281 13.5011 17.2195 12.7872 17.7372 12.2605C18.2549 11.7338 18.9568 11.4374 19.689 11.4363Z" fill="white"/>
<path id="Vector_5" d="M30.1808 11.4363C30.7283 11.4354 31.2637 11.5998 31.7193 11.9087C32.1749 12.2176 32.5302 12.657 32.7401 13.1714C32.95 13.6858 33.0052 14.252 32.8986 14.7982C32.792 15.3445 32.5284 15.8463 32.1412 16.2402C31.7541 16.634 31.2608 16.9021 30.7237 17.0105C30.1867 17.1189 29.6301 17.0629 29.1245 16.8493C28.6188 16.6358 28.1868 16.2744 27.8831 15.811C27.5795 15.3475 27.4179 14.8029 27.4187 14.2459C27.4198 13.5011 27.7112 12.7872 28.229 12.2605C28.7467 11.7338 29.4486 11.4374 30.1808 11.4363Z" fill="white"/>
</g>
</svg>
