<svg width="51" height="59" viewBox="0 0 51 59" fill="none" xmlns="http://www.w3.org/2000/svg">
<path d="M36.6653 30.7035L39.6324 28.2271L45.6403 27.9244L50.0051 32.3262C50.0051 27.0907 46.5378 23.8502 39.6324 25.8749C39.1959 26.0039 37.8178 26.0783 37.8178 26.0783L36.6653 30.7035Z" fill="#FFBC1F"/>
<path d="M47.5229 32.0781C47.5229 36.9712 36.1399 38.2565 32.6725 40.7179C31.2208 41.7501 28.7539 46.3604 28.7539 46.3604L48.9746 34.5147C48.9795 34.5147 47.5229 28.2718 47.5229 32.0781Z" fill="#FFBC1F"/>
<path d="M36.6649 32.4751L38.3569 32.0781C38.3569 32.0781 38.6413 30.4553 39.99 29.2345C41.7164 27.6763 47.5477 28.0187 47.5477 31.82C47.5477 38.0877 35.8458 40.0132 32.3785 42.4746C30.9268 43.5068 29.2593 46.7027 29.2593 46.7027C29.2593 46.7027 30.5197 46.9409 30.8042 46.7027C36.1107 42.2662 50.0096 40.4201 50.0096 32.1326C50.0096 29.1601 45.7379 25.4332 39.6369 27.6465C39.2151 27.8003 37.8223 27.8499 37.8223 27.8499L36.6649 32.4751Z" fill="#CC8F00"/>
<path d="M37.9892 22.1578H0V48.8962C0 50.375 0.42668 51.7447 1.15743 52.9059C2.67288 56.3698 10.0785 58.995 18.9946 58.995C27.9206 58.995 35.3311 56.3599 36.8367 52.896C37.5625 51.7397 37.9892 50.3651 37.9892 48.8962V22.1578Z" fill="#FFBC1F"/>
<path d="M18.9946 14.0986C29.485 14.0986 37.9892 17.6816 37.9892 22.1033C37.9892 26.5249 29.485 30.1079 18.9946 30.1079C8.50417 30.1079 0 26.5249 0 22.1033C0 17.6816 8.50417 14.0986 18.9946 14.0986Z" fill="#FFBC1F"/>
<path d="M18.9949 17.9794C27.7394 17.9794 35.0322 20.2423 36.7389 23.2596C36.9891 22.8229 37.1215 22.3713 37.1215 21.9048C37.1215 18.2424 29.0047 15.2698 18.9949 15.2698C8.98023 15.2698 0.868408 18.2424 0.868408 21.9048C0.868408 22.3713 1.00083 22.8229 1.24604 23.2596C2.96257 20.2423 10.2554 17.9794 18.9949 17.9794Z" fill="#CC8F00"/>
<path d="M18.995 29.1452C27.7395 29.1452 35.0323 26.6192 36.739 23.2546C35.0323 19.895 27.7395 17.369 18.995 17.369C10.2554 17.369 2.95772 19.895 1.24609 23.2546C2.96262 26.6192 10.2554 29.1452 18.995 29.1452Z" fill="#724E41"/>
<path d="M31.1626 21.2696C28.4848 18.1382 19.7992 19.5426 18.9949 21.1058C17.8914 19.4384 9.41662 18.1977 6.82712 21.2696C5.20377 23.2 8.95561 25.0163 12.7173 26.3264C15.0861 27.2395 12.7173 28.2717 12.7173 28.2717C22.1385 28.2717 28.7545 24.9071 28.7545 24.9071C30.9076 23.8104 32.2563 22.5499 31.1626 21.2696Z" fill="#8D6A54"/>
<path d="M26.7332 22.3713C25.1589 19.8602 19.3521 20.8875 18.7293 22.1232C18.1015 20.7882 12.5939 19.7213 10.7057 22.1381C9.52377 23.6516 11.8828 25.1305 14.281 26.2074C15.7866 26.9567 14.1633 27.7507 14.1633 27.7507C20.3673 27.845 24.9333 25.2347 24.9333 25.2347C26.4095 24.3861 27.3806 23.3985 26.7332 22.3713Z" fill="#B49166"/>
<path d="M24.0659 23.2794C23.0114 21.5971 19.1272 22.2869 18.7103 23.1157C18.2934 22.2224 14.6053 21.5078 13.34 23.1206C12.5455 24.133 14.1247 25.1255 15.7333 25.8451C16.7436 26.3463 15.6549 26.8773 15.6549 26.8773C19.8089 26.9368 22.8594 25.195 22.8594 25.195C23.8501 24.6292 24.4974 23.9692 24.0659 23.2794Z" fill="#FAF3D9"/>
<g opacity="0.6">
<path opacity="0.6" d="M20.0344 7.36942C17.1751 4.36706 19.078 0 19.078 0C19.078 0 13.0751 5.77643 16.8661 9.75641C21.2506 14.3617 19.078 17.23 19.078 17.23C19.078 17.23 24.512 12.0739 20.0344 7.36942Z" fill="#A6ADAF"/>
<path opacity="0.6" d="M11.4762 10.0592C9.33301 7.87563 10.7602 4.69958 10.7602 4.69958C10.7602 4.69958 6.25797 8.89792 9.1025 11.7961C12.3933 15.1458 10.7602 17.2301 10.7602 17.2301C10.7602 17.2301 14.8357 13.4833 11.4762 10.0592Z" fill="#A6ADAF"/>
<path opacity="0.6" d="M28.5038 10.0592C26.3606 7.87563 27.7878 4.69958 27.7878 4.69958C27.7878 4.69958 23.2856 8.89792 26.1301 11.7961C29.4209 15.1458 27.7878 17.2301 27.7878 17.2301C27.7878 17.2301 31.8633 13.4784 28.5038 10.0592Z" fill="#A6ADAF"/>
</g>
</svg>
