<svg width="53" height="60" viewBox="0 0 53 60" fill="none" xmlns="http://www.w3.org/2000/svg">
<path d="M15.9362 31.2786L14.1097 31.7809C14.1097 31.7809 8.72155 30.137 5.06858 34.3379L2.32886 31.9179C2.32886 31.9179 8.35626 17.6713 19.3152 17.6256C20.0001 17.6256 21.1416 17.8539 21.6896 17.9452C21.8722 17.9909 22.0092 17.9909 22.0092 17.9909C19.1325 22.1918 17.306 26.758 16.1188 30.8676C16.0275 31.0046 15.9818 31.1416 15.9362 31.2786Z" fill="#C43133"/>
<path d="M27.7624 54.2466L24.9771 51.8265C28.63 47.6256 26.3469 42.5114 26.3469 42.5114L26.6209 40.6393C26.7579 40.5936 26.8949 40.5023 27.0318 40.4566C30.9588 38.7215 35.2054 36.3014 38.9953 32.9224C38.9953 32.9224 39.041 33.0137 39.0866 33.1963C39.2693 33.6986 39.6346 34.8402 39.7259 35.4794C41.0501 46.3927 27.7624 54.2466 27.7624 54.2466Z" fill="#C43133"/>
<path d="M15.9361 31.2785L14.1096 31.7808C15.6165 27.2146 17.9909 22.2374 21.6895 17.8995C21.8722 17.9452 22.0092 17.9452 22.0092 17.9452C19.1325 22.1461 17.306 26.7123 16.1188 30.8219C16.0274 31.0046 15.9818 31.1415 15.9361 31.2785Z" fill="#D1D3D4"/>
<path d="M39.0869 33.242C35.2513 37.4429 30.6394 40.4109 26.3015 42.5114L26.5755 40.6393C26.7125 40.5936 26.8495 40.5023 26.9864 40.4566C30.9134 38.7215 35.16 36.3014 38.9499 32.9224C38.9956 32.9224 39.0412 33.0594 39.0869 33.242Z" fill="#D1D3D4"/>
<path d="M42.1005 29.8174C41.1416 30.9132 40.0914 31.9635 38.9955 32.9224C35.2055 36.3014 30.9133 38.7215 27.032 40.4566C26.895 40.5023 26.758 40.5479 26.621 40.6393C26.0731 40.8676 25.5708 41.0959 25.0229 41.2785L15.5251 32.9224C15.6621 32.3744 15.7991 31.8265 15.9361 31.2785C15.9818 31.1416 16.0274 31.0046 16.0731 30.8219C17.2603 26.7123 19.1325 22.1461 21.9635 17.9452C22.7854 16.758 23.653 15.5708 24.6576 14.4749C29.6804 8.72146 36.2101 5.15982 41.7352 3.0137C47.9452 0.639269 52.8311 0 52.8311 0C52.8311 0 52.8311 4.93151 51.2329 11.4155C49.8174 17.169 47.1233 24.0639 42.1005 29.8174Z" fill="url(#paint0_linear)"/>
<path d="M51.2328 11.4155L41.7351 3.05936C47.9452 0.639269 52.831 0 52.831 0C52.831 0 52.831 4.93151 51.2328 11.4155Z" fill="#C43133"/>
<path d="M24.2466 42.1917L14.7489 33.8356C3.9726 38.1278 0 49.5433 0 49.5433C0 49.5433 2.69406 48.3105 5.02283 48.0822C2.37443 53.8812 0.136986 60 0.136986 60C0.136986 60 5.89041 56.9863 11.3242 53.6073C11.4155 55.9817 10.5479 58.8128 10.5479 58.8128C10.5479 58.8128 21.3699 53.4246 24.2466 42.1917Z" fill="#DD6400"/>
<path d="M22.1919 41.9634L15.2056 35.8447C7.30604 38.9954 3.69873 46.758 3.69873 46.758C3.69873 46.758 6.34713 46.4383 8.08229 46.3013C6.16448 50.5479 4.52065 55.0228 4.52065 55.0228C4.52065 55.0228 8.72156 52.831 12.6942 50.3196C12.7855 52.0548 12.8312 54.7488 12.8312 54.7488C12.8312 54.7488 20.0914 50.2283 22.1919 41.9634Z" fill="#E08F00"/>
<path d="M20.0914 41.8721L15.5709 37.8995C10.5024 39.9543 8.12793 44.9315 8.12793 44.9315C8.12793 44.9315 9.49779 44.4292 10.6393 44.3379C9.40647 47.0776 8.67588 50.274 8.67588 50.274C8.67588 50.274 11.7352 49.1324 14.338 47.5342C14.3836 48.6758 14.064 50.0913 14.064 50.0913C14.064 50.0913 18.7215 47.1689 20.0914 41.8721Z" fill="#FFBC1F"/>
<path d="M24.2465 42.1918L14.7488 33.8356L15.525 32.9224L25.0228 41.2785L24.2465 42.1918Z" fill="url(#paint1_linear)"/>
<path d="M27.032 40.4566C26.3471 40.7306 25.7078 41.0045 25.0685 41.2785L15.5251 32.9223C15.7078 32.2374 15.8904 31.5525 16.0731 30.8676L27.032 40.4566Z" fill="url(#paint2_linear)"/>
<path d="M39.041 21.1872C42.0672 21.1872 44.5204 18.7339 44.5204 15.7077C44.5204 12.6815 42.0672 10.2283 39.041 10.2283C36.0148 10.2283 33.5615 12.6815 33.5615 15.7077C33.5615 18.7339 36.0148 21.1872 39.041 21.1872Z" fill="#C43133"/>
<path d="M42.4657 18.7214C41.4155 19.9086 39.9086 20.4109 38.4474 20.2283C37.8082 20.1369 37.2145 19.9543 36.6666 19.589C36.4383 19.452 36.21 19.315 36.0273 19.1324C34.1095 17.4429 33.9269 14.5662 35.6164 12.694C36.7123 11.4611 38.3104 10.9589 39.8173 11.1872C40.4566 11.2785 41.0502 11.5068 41.5981 11.8721C41.7808 11.9634 41.9177 12.1004 42.1004 12.2374C43.9725 13.9269 44.1552 16.8493 42.4657 18.7214Z" fill="#32A4EC"/>
<path opacity="0.5" d="M38.4476 20.274C37.8083 20.1827 37.2147 20 36.6667 19.6347L39.8174 11.2329C40.4567 11.3242 41.0503 11.5525 41.5983 11.9178L38.4476 20.274Z" fill="white"/>
<path d="M29.9439 24.9962L14.4629 42.6365L15.5268 43.5702L31.0078 25.9299L29.9439 24.9962Z" fill="#C43133"/>
<path d="M31.0046 25.936L27.032 40.4566L25.0228 41.2785L24.2466 42.1917L20 38.4931L31.0046 25.936Z" fill="#E6E7E8"/>
<defs>
<linearGradient id="paint0_linear" x1="27.8426" y1="10.9023" x2="45.2702" y2="26.1967" gradientUnits="userSpaceOnUse">
<stop offset="0.5" stop-color="#D1D3D4"/>
</linearGradient>
<linearGradient id="paint1_linear" x1="15.1246" y1="33.3783" x2="24.6356" y2="41.725" gradientUnits="userSpaceOnUse">
<stop offset="0.5" stop-color="#808285"/>
</linearGradient>
<linearGradient id="paint2_linear" x1="15.4437" y1="31.5773" x2="26.38" y2="41.1749" gradientUnits="userSpaceOnUse">
<stop offset="0.5" stop-color="#A7A9AC"/>
</linearGradient>
</defs>
</svg>
