<svg width="122" height="114" viewBox="0 0 122 114" fill="none" xmlns="http://www.w3.org/2000/svg">
<g clip-path="url(#clip0_602_25)">
<path d="M13.9959 29.8767C14.3199 29.8493 14.6459 29.8986 14.9473 30.0205C15.2488 30.1424 15.5173 30.3335 15.731 30.5784C15.9448 30.8233 16.098 31.115 16.178 31.43C16.258 31.7449 16.2626 32.0742 16.1915 32.3913L14.8659 42.9261C14.856 43.2502 14.7699 43.5675 14.6147 43.8523C14.4595 44.1372 14.2396 44.3816 13.9725 44.5659C13.7054 44.7502 13.3988 44.8692 13.0773 44.9133C12.7557 44.9574 12.4283 44.9254 12.1214 44.8199L2.26172 41.7878C1.59075 41.5348 1.02303 41.066 0.648025 40.4552C0.273016 39.8445 0.112024 39.1264 0.190366 38.4142L0.853213 33.1364C0.953513 32.4245 1.28952 31.7667 1.8076 31.2678C2.32567 30.7688 2.99598 30.4576 3.71169 30.3837L13.9959 29.8767Z" fill="#63697E"/>
<path d="M14.058 51.8464C14.268 51.5997 14.533 51.4056 14.8316 51.2798C15.1303 51.154 15.4544 51.1 15.7778 51.1222C16.1012 51.1443 16.4148 51.242 16.6935 51.4073C16.9722 51.5727 17.2082 51.8011 17.3825 52.0741L23.9073 60.4564C24.1302 60.6926 24.2942 60.9779 24.3863 61.2892C24.4784 61.6005 24.4959 61.9291 24.4374 62.2485C24.379 62.5678 24.2461 62.8689 24.0497 63.1274C23.8532 63.386 23.5987 63.5947 23.3066 63.7368L14.1823 68.5592C13.5295 68.8621 12.7936 68.937 12.093 68.7718C11.3924 68.6067 10.7678 68.2111 10.3193 67.6486L7.05688 63.4574C6.62454 62.8835 6.39682 62.1815 6.40996 61.4632C6.4231 60.745 6.67628 60.0518 7.12932 59.494L14.058 51.8464Z" fill="#63697E"/>
<path d="M29.6967 67.3382C29.6693 67.0144 29.7187 66.6887 29.8407 66.3874C29.9627 66.0862 30.1539 65.818 30.399 65.6044C30.644 65.3907 30.936 65.2377 31.2512 65.1578C31.5664 65.0779 31.8961 65.0733 32.2134 65.1443L42.7565 66.4689C43.0809 66.4788 43.3985 66.5647 43.6836 66.7197C43.9687 66.8748 44.2132 67.0947 44.3976 67.3615C44.5821 67.6284 44.7012 67.9348 44.7453 68.2561C44.7895 68.5774 44.7574 68.9046 44.6518 69.2112L41.6173 79.0733C41.3657 79.7448 40.8968 80.3131 40.2852 80.688C39.6735 81.063 38.9541 81.2231 38.241 81.143L32.9591 80.4807C32.2466 80.3804 31.5882 80.0448 31.0889 79.5271C30.5896 79.0094 30.2781 78.3397 30.2041 77.6245L29.6967 67.3382Z" fill="#63697E"/>
<path d="M51.6324 67.2864C51.3834 67.0767 51.1874 66.8114 51.0602 66.5119C50.9331 66.2123 50.8784 65.8871 50.9006 65.5625C50.9228 65.2379 51.0212 64.9232 51.1879 64.6437C51.3547 64.3643 51.585 64.128 51.8603 63.9542L60.2492 57.445C60.4856 57.2224 60.7712 57.0583 61.0827 56.9663C61.3943 56.8743 61.7231 56.8568 62.0427 56.9152C62.3623 56.9736 62.6636 57.1064 62.9223 57.3026C63.1811 57.4989 63.3901 57.7533 63.5323 58.0452L68.3585 67.1518C68.6605 67.8061 68.7349 68.5425 68.5697 69.2438C68.4046 69.9451 68.0094 70.5712 67.4471 71.0222L63.3044 74.2716C62.7326 74.7085 62.03 74.94 61.3103 74.9288C60.5905 74.9175 59.8956 74.6641 59.3378 74.2095L51.6324 67.2864Z" fill="#63697E"/>
<path d="M67.1365 51.7015C66.8144 51.7267 66.4907 51.6762 66.1916 51.5541C65.8925 51.432 65.6261 51.2417 65.4137 50.9983C65.2014 50.7549 65.049 50.4653 64.9687 50.1526C64.8884 49.8398 64.8824 49.5126 64.9512 49.1972L66.2666 38.6521C66.2781 38.3288 66.3652 38.0128 66.5211 37.7292C66.6769 37.4457 66.8971 37.2026 67.1639 37.0195C67.4308 36.8363 67.7368 36.7183 68.0576 36.6747C68.3784 36.6312 68.7049 36.6633 69.011 36.7687L78.881 39.8008C79.5552 40.0491 80.126 40.5169 80.5018 41.1289C80.8775 41.7408 81.0362 42.4613 80.9524 43.1744L80.2895 48.4418C80.1927 49.1551 79.8578 49.815 79.339 50.3145C78.8203 50.8141 78.148 51.1241 77.431 51.1944L67.1365 51.7015Z" fill="#63697E"/>
<path d="M67.0846 29.7318C66.8756 29.9811 66.6107 30.1777 66.3114 30.3056C66.0121 30.4335 65.6869 30.4891 65.3621 30.4679C65.0372 30.4468 64.7219 30.3494 64.4418 30.1838C64.1617 30.0181 63.9246 29.7888 63.7498 29.5144L57.2353 21.1218C57.0125 20.8856 56.8484 20.6003 56.7563 20.289C56.6642 19.9777 56.6468 19.6491 56.7052 19.3298C56.7637 19.0105 56.8965 18.7093 57.093 18.4508C57.2894 18.1922 57.544 17.9835 57.8361 17.8414L66.95 13.019C67.6058 12.7183 68.3436 12.6457 69.0456 12.8126C69.7476 12.9795 70.3734 13.3764 70.8234 13.94L74.0754 18.1311C74.5127 18.7025 74.7445 19.4045 74.7332 20.1236C74.7219 20.8428 74.4683 21.5372 74.0133 22.0946L67.0846 29.7318Z" fill="#63697E"/>
<path d="M51.4978 14.2402C51.5252 14.564 51.4758 14.8896 51.3538 15.1909C51.2318 15.4921 51.0406 15.7604 50.7955 15.974C50.5505 16.1876 50.2585 16.3406 49.9433 16.4205C49.6281 16.5004 49.2984 16.5051 48.9811 16.4341L38.4378 15.1094C38.1134 15.0995 37.796 15.0136 37.5109 14.8586C37.2258 14.7035 36.9812 14.4837 36.7967 14.2168C36.6123 13.95 36.4932 13.6435 36.4491 13.3222C36.4049 13.0009 36.437 12.6738 36.5426 12.3671L39.5772 2.51537C39.8242 1.84067 40.2919 1.26912 40.9048 0.893434C41.5176 0.517752 42.2396 0.359977 42.9535 0.445679L48.225 1.09764C48.9382 1.19612 49.5976 1.53124 50.0973 2.04924C50.5969 2.56723 50.9078 3.23804 50.98 3.95382L51.4978 14.2402Z" fill="#63697E"/>
<path d="M29.4999 14.3023C29.7474 14.5113 29.9422 14.7754 30.0689 15.0734C30.1957 15.3714 30.2508 15.695 30.2296 16.018C30.2085 16.3411 30.1117 16.6547 29.9472 16.9337C29.7827 17.2126 29.5549 17.4491 29.2823 17.6241L20.883 24.1436C20.6466 24.3663 20.361 24.5303 20.0495 24.6223C19.7379 24.7144 19.4091 24.7319 19.0895 24.6734C18.77 24.615 18.4686 24.4823 18.2099 24.286C17.9511 24.0897 17.7421 23.8354 17.5999 23.5435L12.7737 14.4265C12.4736 13.7727 12.4012 13.0373 12.5683 12.3377C12.7354 11.638 13.1323 11.0144 13.6955 10.5665L17.8382 7.30673C18.4112 6.87126 19.1143 6.6415 19.8341 6.65465C20.5538 6.66779 21.2481 6.92308 21.8048 7.37918L29.4999 14.3023Z" fill="#63697E"/>
<path d="M45.9982 60.5288C42.0913 61.6021 37.9535 61.4937 34.1082 60.2171C30.2629 58.9406 26.8829 56.5533 24.3956 53.3572C21.9083 50.161 20.4253 46.2996 20.1344 42.2614C19.8436 38.2231 20.7578 34.1893 22.7614 30.6702C24.7651 27.1512 27.7681 24.3048 31.3908 22.4912C35.0135 20.6776 39.0931 19.9781 43.1136 20.4814C47.1341 20.9846 50.915 22.6679 53.9781 25.3184C57.0411 27.9689 59.2486 31.4675 60.3216 35.3716C61.7571 40.6055 61.0551 46.1946 58.3694 50.9115C55.6838 55.6284 51.2343 59.0874 45.9982 60.5288ZM31.9546 9.44876C25.7501 11.1483 20.1893 14.6479 15.9752 19.505C11.7611 24.3622 9.08286 30.3588 8.27931 36.7367C7.47576 43.1146 8.58288 49.5873 11.4607 55.3366C14.3385 61.0858 18.8578 65.8534 24.4471 69.0365C30.0364 72.2196 36.4447 73.6752 42.8619 73.2193C49.2791 72.7635 55.4169 70.4167 60.4993 66.4756C65.5818 62.5345 69.3806 57.1761 71.4155 51.0779C73.4504 44.9797 73.63 38.4156 71.9316 32.2154C69.6508 23.8999 64.1579 16.83 56.6611 12.5606C49.1642 8.29115 40.2773 7.17183 31.9546 9.44876Z" fill="#63697E"/>
<path d="M43.1605 50.108C41.3214 50.6132 39.3737 50.5621 37.5637 49.9612C35.7538 49.3603 34.1629 48.2366 32.9922 46.7321C31.8215 45.2276 31.1236 43.4099 30.9869 41.5091C30.8501 39.6082 31.2806 37.7096 32.2239 36.0533C33.1672 34.3969 34.5809 33.0573 36.2862 32.2039C37.9916 31.3505 39.9119 31.0216 41.8043 31.2588C43.6967 31.496 45.4763 32.2887 46.9178 33.5366C48.3593 34.7845 49.3981 36.4315 49.9027 38.2693C50.239 39.489 50.3313 40.763 50.1744 42.0183C50.0175 43.2737 49.6144 44.4859 48.9882 45.5854C48.3619 46.685 47.5249 47.6504 46.5249 48.4265C45.5249 49.2025 44.3817 49.7739 43.1605 50.108ZM33.8394 16.4134C29.0111 17.7326 24.6828 20.4532 21.4023 24.231C18.1218 28.0088 16.0366 32.6739 15.4103 37.6362C14.784 42.5985 15.6448 47.6349 17.8839 52.1082C20.123 56.5815 23.6397 60.2907 27.9891 62.7664C32.3384 65.2421 37.325 66.3731 42.3178 66.0163C47.3107 65.6595 52.0855 63.8309 56.038 60.7619C59.9905 57.693 62.9431 53.5215 64.5223 48.7754C66.1015 44.0292 66.2363 38.9216 64.9096 34.0989C63.1302 27.6408 58.8595 22.1517 53.0346 18.8361C47.2098 15.5205 40.3065 14.6492 33.8394 16.4134Z" fill="#A4A9B7"/>
<path d="M43.1605 50.108C41.3215 50.6132 39.3738 50.5621 37.5638 49.9612C35.7538 49.3603 34.163 48.2366 32.9923 46.7321C31.8216 45.2276 31.1237 43.4099 30.9869 41.5091C30.8502 39.6082 31.2807 37.7096 32.224 36.0533C33.1673 34.3969 34.5809 33.0573 36.2863 32.2039C37.9916 31.3505 39.9119 31.0216 41.8044 31.2588C43.6968 31.4961 45.4764 32.2887 46.9179 33.5366C48.3594 34.7845 49.3982 36.4315 49.9028 38.2693C50.2391 39.489 50.3314 40.763 50.1745 42.0184C50.0175 43.2737 49.6144 44.4859 48.9882 45.5854C48.362 46.685 47.5249 47.6504 46.5249 48.4265C45.525 49.2025 44.3817 49.7739 43.1605 50.108ZM35.5069 22.2499C31.8313 23.2607 28.5383 25.3379 26.0443 28.2188C23.5503 31.0998 21.9674 34.655 21.4957 38.4349C21.024 42.2148 21.6846 46.0496 23.3942 49.4543C25.1038 52.859 27.7854 55.6806 31.0999 57.5623C34.4145 59.4441 38.2131 60.3015 42.0154 60.026C45.8176 59.7505 49.4527 58.3545 52.4609 56.0147C55.4691 53.6748 57.7152 50.4961 58.9154 46.8806C60.1155 43.2651 60.2156 39.3753 59.2031 35.7029C58.5333 33.2585 57.3876 30.9701 55.8313 28.9688C54.2751 26.9675 52.339 25.2926 50.134 24.04C47.929 22.7875 45.4983 21.9819 42.9812 21.6694C40.4642 21.3569 37.9101 21.5436 35.4654 22.2188L35.5069 22.2499Z" fill="#63697E"/>
<path d="M71.6104 75.1305C71.8521 75.1144 72.0942 75.1544 72.3179 75.2471C72.5416 75.3398 72.7407 75.4829 72.9001 75.6651C73.0594 75.8474 73.1746 76.0638 73.2365 76.2978C73.2984 76.5317 73.3055 76.7768 73.2572 77.0139L72.2215 84.9098C72.2095 85.1526 72.1417 85.3895 72.0233 85.602C71.9049 85.8144 71.739 85.9968 71.5387 86.1349C71.3384 86.273 71.109 86.3632 70.8682 86.3984C70.6274 86.4336 70.3817 86.4129 70.1502 86.3379L62.7451 84.0612C62.2388 83.8743 61.8102 83.5226 61.5284 83.0627C61.2466 82.6027 61.1279 82.0613 61.1916 81.5258L61.6783 77.5727C61.7503 77.0369 62.0012 76.5411 62.3902 76.1655C62.7793 75.7899 63.2838 75.5564 63.8221 75.503L71.6104 75.1305Z" fill="#63697E"/>
<path d="M71.6623 91.6053C71.8227 91.4252 72.0222 91.2842 72.2455 91.1928C72.4688 91.1015 72.71 91.0623 72.9508 91.0782C73.1915 91.0942 73.4255 91.1649 73.6347 91.285C73.844 91.405 74.0231 91.5712 74.1583 91.7709L79.0466 98.0628C79.2079 98.243 79.3258 98.4578 79.3911 98.6906C79.4565 98.9234 79.4675 99.1681 79.4235 99.4059C79.3795 99.6437 79.2816 99.8682 79.1373 100.062C78.9929 100.256 78.806 100.415 78.5909 100.526L71.7554 104.148C71.265 104.373 70.7133 104.428 70.188 104.304C69.6627 104.18 69.1939 103.885 68.8556 103.465L66.4113 100.36C66.077 99.9352 65.8954 99.4104 65.8954 98.8699C65.8954 98.3294 66.077 97.8046 66.4113 97.3797L71.6623 91.6053Z" fill="#63697E"/>
<path d="M83.3552 103.227C83.3413 102.986 83.3826 102.745 83.476 102.522C83.5695 102.3 83.7126 102.102 83.8945 101.943C84.0764 101.784 84.2922 101.669 84.5254 101.606C84.7586 101.544 85.003 101.535 85.2401 101.581L93.1423 102.616C93.3853 102.628 93.6224 102.696 93.8351 102.814C94.0477 102.932 94.2301 103.098 94.3683 103.298C94.5066 103.498 94.5968 103.728 94.6321 103.968C94.6673 104.209 94.6466 104.454 94.5715 104.686L92.2929 112.075C92.1047 112.58 91.7529 113.009 91.2932 113.292C90.8335 113.575 90.2923 113.696 89.7556 113.637L85.7994 113.14C85.2632 113.069 84.7669 112.818 84.391 112.429C84.0151 112.04 83.7815 111.536 83.728 110.998L83.3552 103.227Z" fill="#63697E"/>
<path d="M99.8429 103.185C99.6627 103.025 99.5216 102.826 99.4302 102.602C99.3387 102.379 99.2995 102.138 99.3155 101.898C99.3315 101.657 99.4022 101.423 99.5223 101.214C99.6425 101.005 99.8088 100.826 100.009 100.691L106.306 95.7964C106.486 95.6352 106.701 95.5174 106.934 95.4522C107.167 95.3869 107.412 95.3758 107.65 95.4198C107.888 95.4637 108.113 95.5615 108.307 95.7058C108.501 95.85 108.66 96.0368 108.77 96.2517L112.385 103.082C112.614 103.571 112.671 104.123 112.547 104.649C112.423 105.175 112.125 105.644 111.701 105.979L108.594 108.432C108.164 108.754 107.638 108.924 107.099 108.915C106.561 108.905 106.041 108.717 105.622 108.38L99.8429 103.185Z" fill="#63697E"/>
<path d="M111.515 91.5018C111.274 91.5157 111.033 91.4744 110.81 91.381C110.588 91.2875 110.389 91.1445 110.23 90.9628C110.072 90.7811 109.956 90.5655 109.894 90.3325C109.831 90.0995 109.822 89.8552 109.868 89.6184L110.904 81.7121C110.916 81.4693 110.983 81.2325 111.102 81.0202C111.22 80.808 111.386 80.626 111.587 80.4886C111.788 80.3512 112.018 80.2622 112.258 80.2285C112.499 80.1948 112.745 80.2174 112.976 80.2944L120.37 82.5711C120.877 82.7557 121.306 83.1051 121.59 83.563C121.873 84.021 121.995 84.5609 121.934 85.0961L121.437 89.0492C121.365 89.585 121.114 90.0808 120.725 90.4564C120.336 90.832 119.831 91.0655 119.293 91.1189L111.515 91.5018Z" fill="#63697E"/>
<path d="M111.432 75.0271C111.271 75.2066 111.071 75.347 110.847 75.4375C110.623 75.528 110.382 75.5662 110.141 75.5492C109.9 75.5322 109.667 75.4605 109.458 75.3395C109.249 75.2185 109.071 75.0515 108.936 74.8511L104.038 68.5593C103.876 68.3799 103.758 68.166 103.693 67.9339C103.628 67.7018 103.617 67.4578 103.661 67.2208C103.705 66.9838 103.803 66.76 103.947 66.5668C104.091 66.3736 104.278 66.2162 104.493 66.1067L111.329 62.4847C111.82 62.259 112.373 62.2046 112.899 62.3303C113.424 62.456 113.893 62.7546 114.229 63.1781L116.673 66.2826C117.005 66.7082 117.186 67.2328 117.186 67.7728C117.186 68.3128 117.005 68.8373 116.673 69.263L111.432 75.0271Z" fill="#63697E"/>
<path d="M99.7393 63.4057C99.7532 63.6466 99.7118 63.8874 99.6183 64.1099C99.5248 64.3324 99.3817 64.5306 99.1999 64.6894C99.018 64.8481 98.8023 64.9633 98.5691 65.026C98.3359 65.0887 98.0915 65.0972 97.8544 65.0511L89.9419 64.0163C89.6997 64.0027 89.4638 63.9338 89.2525 63.8149C89.0411 63.6959 88.86 63.5301 88.7229 63.3302C88.5858 63.1302 88.4965 62.9015 88.4618 62.6616C88.4272 62.4217 88.4481 62.1771 88.523 61.9466L90.8014 54.5577C90.9814 54.0486 91.3301 53.6161 91.7897 53.3319C92.2493 53.0477 92.792 52.9289 93.3284 52.9951L97.2848 53.4919C97.8194 53.5633 98.3144 53.8124 98.6901 54.1991C99.0658 54.5858 99.3004 55.0876 99.3561 55.6237L99.7393 63.4057Z" fill="#63697E"/>
<path d="M83.2411 63.4471C83.4232 63.6064 83.5662 63.8054 83.6588 64.0287C83.7514 64.2521 83.7913 64.4938 83.7752 64.735C83.7592 64.9763 83.6877 65.2106 83.5664 65.4198C83.445 65.6289 83.277 65.8073 83.0755 65.9411L76.7785 70.8256C76.5997 70.9871 76.3862 71.1054 76.1545 71.1715C75.9227 71.2375 75.6788 71.2495 75.4417 71.2065C75.2045 71.1635 74.9804 71.0667 74.7867 70.9235C74.5929 70.7803 74.4345 70.5946 74.3239 70.3806L70.6991 63.5402C70.4739 63.0502 70.4189 62.499 70.5427 61.9741C70.6665 61.4492 70.9621 60.9807 71.3827 60.6427L74.4897 58.2005C74.9149 57.8664 75.4401 57.6849 75.981 57.6849C76.5219 57.6849 77.0472 57.8664 77.4724 58.2005L83.2411 63.4471Z" fill="#63697E"/>
<path d="M95.6176 98.1144C92.6889 98.9227 89.5861 98.8449 86.7017 97.8908C83.8173 96.9368 81.2809 95.1494 79.4133 92.7547C77.5458 90.36 76.4309 87.4656 76.21 84.4378C75.989 81.4099 76.6717 78.3846 78.1718 75.7445C79.6719 73.1045 81.922 70.9682 84.6373 69.6061C87.3527 68.244 90.4114 67.7173 93.4264 68.0925C96.4415 68.4676 99.2774 69.7279 101.576 71.7138C103.874 73.6997 105.531 76.3221 106.337 79.2491C107.414 83.171 106.891 87.3598 104.881 90.8965C102.872 94.4332 99.5402 97.029 95.6176 98.1144ZM85.0848 59.8251C80.4387 61.1113 76.2784 63.7444 73.1292 67.3918C69.9801 71.0393 67.9832 75.5374 67.3912 80.3182C66.7991 85.0989 67.6383 89.9478 69.8027 94.2522C71.9671 98.5567 75.3596 102.124 79.5518 104.503C83.7439 106.881 88.5476 107.966 93.3561 107.618C98.1646 107.271 102.762 105.507 106.568 102.55C110.374 99.5932 113.218 95.5756 114.74 91.0047C116.262 86.4339 116.394 81.5149 115.119 76.869C114.273 73.7753 112.825 70.879 110.856 68.3462C108.887 65.8133 106.437 63.6938 103.647 62.1093C100.856 60.5248 97.78 59.5065 94.5947 59.1127C91.4094 58.719 88.1776 58.9575 85.0848 59.8148V59.8251Z" fill="#63697E"/>
<path d="M93.4631 90.2807C92.08 90.6649 90.6138 90.6302 89.2504 90.1808C87.887 89.7315 86.6878 88.8878 85.8048 87.7566C84.9219 86.6255 84.3949 85.2579 84.2908 83.8272C84.1866 82.3965 84.5098 80.9671 85.2196 79.7201C85.9294 78.4732 86.9936 77.4649 88.2776 76.8231C89.5615 76.1813 91.0072 75.9347 92.4315 76.1149C93.8558 76.295 95.1946 76.8936 96.278 77.8348C97.3614 78.776 98.1407 80.0174 98.5172 81.4017C99.0196 83.2486 98.77 85.2192 97.823 86.8828C96.8761 88.5465 95.3086 89.7681 93.4631 90.2807ZM86.5242 65.0304C82.9049 66.0218 79.6611 68.0633 77.203 70.8969C74.7449 73.7304 73.183 77.2286 72.7148 80.9492C72.2466 84.6697 72.8932 88.4454 74.5727 91.7988C76.2522 95.1522 78.8892 97.9326 82.1503 99.7884C85.4113 101.644 89.1499 102.492 92.8932 102.224C96.6365 101.957 100.216 100.586 103.18 98.286C106.144 95.9855 108.358 92.8586 109.543 89.3006C110.728 85.7426 110.83 81.9133 109.837 78.2972C108.506 73.4493 105.302 69.3282 100.93 66.8403C96.5581 64.3525 91.3763 63.7014 86.5242 65.0304Z" fill="#A4A9B7"/>
<path d="M93.4631 90.2806C92.0799 90.6649 90.6138 90.6301 89.2504 90.1808C87.887 89.7314 86.6877 88.8877 85.8048 87.7565C84.9218 86.6254 84.3949 85.2578 84.2907 83.8271C84.1865 82.3964 84.5098 80.967 85.2196 79.7201C85.9293 78.4731 86.9936 77.4648 88.2775 76.823C89.5615 76.1812 91.0072 75.9347 92.4315 76.1148C93.8558 76.2949 95.1945 76.8935 96.278 77.8347C97.3614 78.7759 98.1407 80.0173 98.5172 81.4016C99.0196 83.2486 98.77 85.2191 97.823 86.8828C96.876 88.5464 95.3086 89.768 93.4631 90.2806ZM87.6945 69.3871C84.9237 70.1395 82.4388 71.697 80.5549 73.8621C78.6709 76.0272 77.4728 78.7025 77.1123 81.5488C76.7518 84.3951 77.2452 87.2842 78.5299 89.8501C79.8146 92.4159 81.8328 94.5428 84.3287 95.9612C86.8245 97.3797 89.6856 98.0257 92.5493 97.8175C95.4131 97.6093 98.1504 96.5562 100.414 94.7917C102.679 93.0272 104.367 90.6307 105.267 87.9061C106.166 85.1814 106.236 82.2514 105.467 79.4872C104.441 75.7992 101.995 72.6669 98.6654 70.7744C95.3354 68.882 91.3913 68.3832 87.6945 69.3871Z" fill="#63697E"/>
</g>
<defs>
<clipPath id="clip0_602_25">
<rect width="121.702" height="113.191" fill="white" transform="translate(0.148926 0.404236)"/>
</clipPath>
</defs>
</svg>
