<svg width="50" height="50" viewBox="0 0 50 50" fill="none" xmlns="http://www.w3.org/2000/svg">
<path d="M49.9992 25.0004C49.9992 38.8085 38.8077 50 24.9996 50C11.1915 50 0 38.8085 0 25.0004C0 13.0034 8.45483 2.9778 19.7265 0.557044L20.434 0.570393L20.9413 0.330098C21.3507 0.26335 21.7601 0.205501 22.1739 0.161002L23.0505 0.187701L23.6602 0.0364041C23.7803 0.0319541 23.896 0.0230543 24.0162 0.0186044L24.9996 0.156552L25.6493 0.00970459C25.7739 0.0141545 25.8985 0.0186044 26.0231 0.0230543L27.3937 0.370147L29.0134 0.325648C29.2048 0.356798 29.3961 0.387947 29.5875 0.423546L35.5192 4.20152L41.9894 6.66232C46.9154 11.2235 49.9992 17.7515 49.9992 25.0004Z" fill="#1C58D9"/>
<path d="M26.2145 7.88967C27.8431 8.41031 27.7764 7.38238 28.8043 8.5794C29.3961 9.26469 30.4641 10.524 31.7324 10.8355C31.9103 10.88 32.3064 10.5018 32.3064 10.1947C32.3064 9.89213 31.4298 9.25134 30.9269 9.11784C30.4196 8.9799 31.1272 8.04097 30.4552 7.75617C29.7833 7.46693 29.0402 6.3945 28.7732 5.55346C28.5017 4.71243 27.3225 5.41997 26.922 5.25087C26.5171 5.08177 26.0142 5.18412 25.5781 5.82491C25.1376 6.46125 25.7962 7.75617 26.2145 7.88967Z" fill="#FFBC1F"/>
<path d="M35.0341 31.4386C35.0163 31.0871 31.8124 29.3338 31.4208 29.3116C30.78 29.276 29.9078 28.9511 29.3204 29.2938C29.0668 29.4362 28.8621 29.632 28.7019 29.8722C28.5906 30.0814 27.9676 29.6898 27.7229 29.8188C27.1444 30.1259 26.8151 29.1247 26.9798 28.742C27.3803 27.803 25.9563 28.3993 25.8094 28.1412C25.983 28.4438 25.7605 25.4668 25.2621 27.1489C24.8839 28.4216 23.402 26.962 23.58 26.0364C23.8559 24.608 26.0097 24.3989 26.4814 24.6525C26.7217 24.7771 27.5938 26.0498 27.7051 26.0142C27.9454 25.9385 27.5627 24.519 27.5138 24.3277C27.3402 23.6379 28.6707 23.4021 28.7642 22.6812C28.8443 22.0671 29.2581 22.2807 29.672 21.9514C30.2727 21.4753 29.8055 20.5897 30.5753 20.1314C30.8378 19.9756 31.8168 19.8644 31.9459 19.5885C32.066 19.3393 31.1182 18.6496 31.9325 18.4538C32.6623 18.2758 33.4099 18.5917 33.6057 17.5371C33.7837 16.5804 32.729 16.3623 32.4087 15.6192C32.3108 15.3967 32.1906 14.1151 31.7367 14.351C31.176 14.6446 30.8289 15.3522 30.375 14.5112C29.5518 12.9937 27.5138 12.3396 28.4705 14.7247C28.9644 15.9574 27.1222 19.7042 26.8552 16.2377C26.7617 15.0362 23.1617 14.6713 24.3721 13.3408C25.6003 11.9881 27.2779 11.9391 27.7318 9.86544C28.3637 6.98635 26.3701 9.4338 25.3511 8.87756C23.8292 8.04543 25.1197 8.49487 24.3321 9.5762C24.0339 9.98559 23.0549 9.3181 22.6188 9.3804C22.2139 9.4427 21.1771 10.3327 20.9012 9.77645C20.3894 8.75742 16.8206 8.12998 15.8505 8.49042C13.8392 9.24691 13.1361 8.22343 11.1247 7.82738C10.4261 7.68944 6.99966 7.59154 7.22215 8.77967C7.31115 9.24691 7.64044 9.6118 7.78284 10.0523C7.99644 10.7065 7.01301 10.2036 6.79051 10.3638C6.73266 10.4083 7.94749 11.2627 8.04539 11.3651C8.37468 11.6988 6.78161 12.1082 6.62586 12.6689C6.30547 13.8125 8.80632 13.4832 8.34798 14.8538C8.21003 15.2721 6.77716 15.9529 6.63921 17.3502C6.61251 17.6172 8.41918 15.6147 9.58506 16.0375C10.6174 16.4113 10.524 13.6123 11.8056 13.6123C14.1907 13.6123 14.6491 15.9351 15.9084 17.4926C16.4958 18.2179 16.9675 18.5205 17.0698 19.4684C17.1677 20.3539 16.9764 21.4263 17.2968 22.2673C17.6038 23.0728 18.2268 23.1262 18.6362 23.7759C19.1257 24.5413 19.4016 25.2844 20.0646 25.943C21.0258 26.9086 22.6678 28.386 24.1763 28.159C24.4745 28.1145 25.6003 28.7553 25.8539 28.9467C26.25 29.2448 26.4502 29.6942 26.735 30.0769C27.002 30.4329 27.843 30.2104 28.2168 30.3795C28.5461 30.5308 27.358 33.0317 27.803 33.6903C28.288 34.4156 28.288 35.2255 29.0178 35.7951C29.7076 36.3335 29.9123 36.378 30.0012 37.3125C30.1392 38.8344 29.6942 40.374 29.3293 41.7936C29.138 42.5233 29.5207 43.3288 29.2403 44.023C28.8843 44.8951 28.644 45.6383 28.9555 46.6039C29.494 48.2815 32.5155 48.5574 30.7221 47.0934C29.9612 46.4704 31.5454 44.9663 31.0514 44.8195C30.2015 44.4635 31.2072 44.1431 31.3184 43.7738C31.5409 43.0395 34.9139 40.0002 35.1631 39.4974C35.3723 39.0747 35.2388 38.6386 35.5814 38.2737C35.9597 37.8687 36.4848 38.0111 36.912 37.7263C37.8019 37.1301 37.4816 36.1199 37.8464 35.2967C38.5762 33.6636 38.8833 34.3088 37.8865 33.0361C37.5216 32.5867 35.1009 32.7558 35.0341 31.4386Z" fill="#FFBC1F"/>
<path d="M17.0119 6.72826C17.626 7.36904 18.2312 6.39006 18.3335 6.72826C18.4359 7.06645 18.4492 7.70279 19.1835 7.75174C19.9177 7.80514 18.5026 8.27238 18.9743 8.47707C19.446 8.67732 20.4561 9.31811 20.8255 9.05111C21.1948 8.77967 21.6354 8.57942 21.8 8.77967C21.9691 8.98436 22.9792 8.74852 22.69 8.41032C22.4052 8.07213 21.6309 7.2756 21.6621 6.81725C21.6977 6.35891 22.5743 5.17969 21.5953 5.28203C20.959 5.34878 20.821 5.92282 20.821 6.26102C20.821 6.59921 19.9132 5.75818 19.7441 5.77153C19.5751 5.78932 18.9343 4.74805 18.7029 4.74805C18.467 4.74805 16.8829 4.24076 17.0208 4.74805C17.1588 5.25089 16.3978 6.09192 17.0119 6.72826Z" fill="#FFBC1F"/>
<path d="M31.1271 11.5431C30.651 11.2716 29.7476 10.0301 29.3427 10.4306C28.9378 10.8355 29.4451 11.7433 29.7788 12.1483C30.117 12.5532 31.5321 13.4298 31.3274 13.0249C31.1271 12.6244 32.0705 12.0815 31.1271 11.5431Z" fill="#FFBC1F"/>
<path d="M17.9421 2.98145C18.1913 2.9592 18.5695 3.80914 18.9299 3.90258C19.2904 3.99158 19.4684 4.41877 19.6019 4.52112C19.7398 4.62347 21.2395 4.04053 21.5999 3.90258C22.0182 3.74684 21.1505 2.93695 20.8612 2.35401C20.5675 1.77107 20.7945 3.31964 20.3673 3.066C19.9401 2.81235 20.0068 2.46526 19.4906 2.46526C18.9744 2.46526 19.3349 1.41063 18.6808 1.63313C18.0266 1.86007 17.6973 3.0037 17.9421 2.98145Z" fill="#FFBC1F"/>
<path d="M23.3486 5.00171C22.9081 5.09071 22.9882 5.3844 22.7434 5.62914C22.4987 5.87834 22.5209 6.21208 22.7434 6.50578C22.9704 6.79947 23.3264 7.31121 23.5978 6.81727C23.8693 6.32333 23.5978 5.92284 23.5978 5.6069C23.5978 5.2954 23.5667 4.95721 23.3486 5.00171Z" fill="#FFBC1F"/>
<path d="M24.2476 6.57252C24.3588 6.84397 24.5635 6.10083 24.9996 5.71814C25.4357 5.33545 24.786 4.37427 24.3811 4.86376C24.1097 5.20195 24.1364 6.30108 24.2476 6.57252Z" fill="#FFBC1F"/>
<path d="M24.1674 6.91065C23.9315 7.23995 23.7491 8.12103 24.1674 8.18778C24.5857 8.25897 24.8393 7.78283 24.6569 7.44464C24.47 7.1109 24.2653 6.77271 24.1674 6.91065Z" fill="#FFBC1F"/>
<path d="M25.8629 1.23254C25.458 1.41498 26.4459 1.74873 25.7739 1.93117C25.0975 2.10917 25.0753 2.67431 24.4924 2.19817C23.9094 1.72648 23.2731 2.35392 23.7136 2.64761C24.1542 2.9413 24.8973 3.63549 24.875 4.01818C24.8528 4.40087 25.5692 4.57887 26.2456 4.53437C26.9176 4.48987 27.7274 4.69012 27.7497 4.40087C27.7719 4.10718 27.852 3.98703 27.7719 3.77344C27.6562 3.45749 27.367 3.146 26.6728 3.41299C25.9742 3.68444 25.5247 3.54649 25.4268 3.21275C25.3245 2.87011 26.7885 2.21597 27.4337 2.66986C28.0834 3.1193 28.6931 2.42066 28.2214 2.10917C27.7497 1.79323 28.0656 1.45948 28.3905 1.41498C28.6263 1.38383 28.8399 0.787546 29.0135 0.324755C28.0345 0.169009 27.0377 0.0666605 26.0231 0.0266113C26.0276 0.654049 26.2634 1.05454 25.8629 1.23254Z" fill="#FFBC1F"/>
<path d="M19.8955 0.671928C20.3449 0.863274 21.0792 0.667478 20.9412 0.329285C20.5363 0.396033 20.1313 0.471682 19.7308 0.55623C19.7664 0.600729 19.8198 0.640779 19.8955 0.671928Z" fill="#FFBC1F"/>
<path d="M20.1715 1.02795C19.5396 0.703102 19.5752 1.49964 19.8645 1.81558C20.1582 2.12707 20.9903 1.45069 20.1715 1.02795Z" fill="#FFBC1F"/>
<path d="M24.0162 0.0177996C24.4879 0.106798 24.7994 0.471691 24.8751 0.743135C24.9596 1.02793 25.6405 0.409392 25.6494 0.00444991C25.4358 0.00444991 25.2177 0 24.9997 0C24.6704 0 24.3455 0.00444991 24.0162 0.0177996Z" fill="#FFBC1F"/>
<path d="M22.6945 0.952326C22.4097 1.34392 22.6545 1.82006 22.9927 1.42402C23.3309 1.02797 23.0594 0.0400944 23.3309 0.467286C23.5979 0.894477 24.0963 1.57086 24.43 1.60201C24.7637 1.63316 24.4745 1.20597 24.43 0.849978C24.3944 0.551834 23.589 0.155792 23.6602 0.0356445C23.1618 0.062344 22.6678 0.102393 22.1783 0.155792C22.5299 0.387187 22.8992 0.671982 22.6945 0.952326Z" fill="#FFBC1F"/>
<path d="M24.1675 4.32533C24.5635 4.48108 24.1675 3.5199 24.1675 3.5199C23.7536 3.76909 23.7759 4.16959 24.1675 4.32533Z" fill="#FFBC1F"/>
<path d="M22.7435 3.6979C22.8103 3.96934 23.2374 4.05834 23.4644 3.6979C23.6869 3.33746 23.451 2.02918 23.144 2.43857C22.8236 2.86577 22.4543 2.66552 21.8046 2.43857C21.1504 2.21608 22.6768 3.4309 22.7435 3.6979Z" fill="#FFBC1F"/>
<path d="M27.14 26.6417C27.6962 26.5749 28.0166 27.2469 28.6529 27.2157C29.2937 27.1846 30.2193 28.128 30.7577 27.5717C31.1938 27.1178 28.8398 26.7485 28.0655 26.3435C27.2913 25.9386 26.5837 26.7084 27.14 26.6417Z" fill="#FFBC1F"/>
<path d="M29.8813 1.34386C30.6556 1.7132 30.5221 1.7043 30.0504 2.06029C29.5787 2.42073 29.7478 3.20837 30.7935 3.15052C31.8348 3.09712 32.4756 2.06029 32.9473 3.51986C33.419 4.97943 33.0808 6.57695 33.6904 7.02194C34.2956 7.47138 33.7927 7.77398 33.6904 8.19672C33.588 8.61501 33.8595 8.9176 34.3312 8.78411C34.8029 8.65061 34.6694 9.52724 34.3312 9.89658C33.993 10.2659 33.5925 10.9735 34.6338 12.2506C35.6751 13.5277 35.8086 13.3631 36.1467 13.7992C36.4849 14.2352 36.7519 13.639 36.8543 13.1272C36.9566 12.6199 36.6184 10.84 37.7977 10.84C38.9769 10.8355 39.3106 9.89213 39.4486 9.58954C39.5821 9.28695 40.5255 9.32255 41.0283 8.882C41.4777 8.49486 41.9761 8.16557 41.9895 6.65705C38.5942 3.51096 34.3223 1.29491 29.5876 0.418274C29.4941 0.769817 29.4986 1.16141 29.8813 1.34386Z" fill="#FFBC1F"/>
</svg>
