<svg width="55" height="54" viewBox="0 0 55 54" fill="none" xmlns="http://www.w3.org/2000/svg">
<path d="M48.5861 5.50645C44.7619 1.83368 40.348 0 35.3392 0C30.3304 0 25.9166 1.83368 22.0924 5.50645C18.7279 8.94663 16.8942 12.9439 16.5859 17.493C16.283 22.042 17.5433 26.2287 20.3723 30.0529L17.5055 32.9197L21.1782 36.5925L24.0451 33.7257C27.8693 36.4789 32.0343 37.723 36.5455 37.4525C41.0566 37.1875 45.0702 35.37 48.5861 32.0056C52.2588 28.1759 54.0925 23.7621 54.0925 18.7533C54.0925 13.7445 52.2588 9.33067 48.5861 5.50645Z" fill="#B3B3B3"/>
<path d="M46.1198 7.9135C43.253 5.00882 39.6397 3.51591 35.28 3.44019C30.996 3.51591 27.4043 5.00882 24.4996 7.9135C21.595 10.8182 20.1021 14.4152 20.0263 18.6938C20.1021 23.0535 21.595 26.6668 24.4996 29.5336C27.4043 32.4004 31.0014 33.9096 35.28 34.0664C39.6397 33.915 43.253 32.4058 46.1198 29.5336C48.9866 26.6668 50.4957 23.0535 50.6526 18.6938C50.5011 14.4152 48.9866 10.8236 46.1198 7.9135Z" fill="#F2F2F2"/>
<path d="M45.6056 27.8731C42.4738 30.8535 38.8767 32.3464 34.8253 32.3464C30.7739 32.3464 27.1823 30.8535 24.045 27.8731C22.3628 26.1909 21.1403 24.2815 20.3722 22.1395C20.9835 24.9685 22.3628 27.4945 24.4994 29.7122C27.6366 32.6926 31.2499 34.1855 35.3392 34.1855C39.4285 34.1855 43.0417 32.6926 46.179 29.7122C48.321 27.4945 49.6949 24.9739 50.3061 22.1395C50.9228 19.3105 50.728 16.5141 49.7328 13.7662C50.2683 16.2166 50.1925 18.6777 49.5056 21.1659C48.8186 23.6486 47.515 25.8826 45.6056 27.8731Z" fill="#999999"/>
<path d="M4.71309 53.853C5.6705 54.1181 6.37368 54.0261 6.83345 53.5663L21.8599 37.2742C22.3197 36.8144 22.509 36.2248 22.4333 35.4946C22.3575 34.7698 21.8978 33.9476 21.0593 33.028C20.1398 32.1896 19.323 31.7082 18.5928 31.5946C17.868 31.481 17.273 31.692 16.8132 32.2275L0.412868 47.2539C-0.0469036 47.7137 -0.122635 48.4007 0.185684 49.3202C0.494001 50.2398 1.06736 51.1539 1.90577 52.0734C2.82532 52.993 3.76109 53.5826 4.71309 53.853Z" fill="#FFBC1F"/>
<path d="M3.73942 44.1597L9.81923 50.3531L17.2729 42.3206L11.7719 36.8196L3.73942 44.1597Z" fill="#954D0E"/>
</svg>
