<svg width="28" height="21" viewBox="0 0 28 21" fill="none" xmlns="http://www.w3.org/2000/svg">
<path d="M2.48586 16.715H25.5273C25.8776 16.715 26.1635 16.4239 26.1635 16.0659V0.649126C26.1635 0.291076 25.8802 0 25.5273 0H2.48586C2.13553 0 1.84961 0.291076 1.84961 0.649126V16.0659C1.84961 16.4239 2.13553 16.715 2.48586 16.715Z" fill="#202427"/>
<path d="M0 18.9766C0 19.7545 0.631095 20.5325 1.39871 20.5325H26.6013C27.3277 20.5325 28 19.7571 28 18.9766H0Z" fill="#202427"/>
<path d="M25.6662 16.715H2.33376L0 18.9766H28L25.6662 16.715Z" fill="#DCDCDC"/>
<path d="M24.8959 16.8927H3.11665L2.34131 17.8458H25.6738L24.8959 16.8927Z" fill="#BEBDBE"/>
<path d="M16.4008 18.2657H11.6122L11.2542 18.7397H16.7588L16.4008 18.2657Z" fill="#202427"/>
<path d="M24.7389 1.40906H3.27393V15.306H24.7389V1.40906Z" fill="#3D4247"/>
<path d="M14.0053 0.360596C14.2062 0.360596 14.3685 0.522877 14.3685 0.723797C14.3685 0.924717 14.2062 1.087 14.0053 1.087C13.8044 1.087 13.6421 0.924717 13.6421 0.723797C13.6447 0.522877 13.8069 0.360596 14.0053 0.360596Z" fill="#DCDCDC"/>
<path d="M16.0143 19.9915H11.9856C11.8465 19.9915 11.4807 19.9915 11.4807 19.5201H16.5217C16.5192 19.9915 16.1457 19.9915 16.0143 19.9915Z" fill="#3D4247"/>
<path d="M9.63379 13.5621C9.07997 13.5621 8.83011 13.1628 9.0774 12.676L13.5492 3.89217C13.7964 3.40533 14.2034 3.40533 14.4507 3.89217L18.9225 12.676C19.1698 13.1628 18.9199 13.5621 18.3661 13.5621H9.63379Z" fill="#FFBC1F"/>
<path d="M13.2965 7.1378L13.7576 10.2263C13.804 10.5328 14.1955 10.5328 14.2419 10.2263L14.7004 7.1378C14.7854 5.93486 13.2115 5.93486 13.2965 7.1378Z" fill="#221E1F"/>
<path d="M14 10.7853C14.3889 10.7853 14.7058 11.0995 14.7058 11.4885C14.7058 11.8775 14.3889 12.1917 14 12.1917C13.611 12.1917 13.2942 11.8775 13.2942 11.4885C13.2942 11.0995 13.611 10.7853 14 10.7853Z" fill="#221E1F"/>
</svg>
