<svg width="48" height="48" viewBox="0 0 48 48" fill="none" xmlns="http://www.w3.org/2000/svg">
<g clip-path="url(#clip0)">
<path d="M32.6801 1.82C29.7101 0.58 26.6401 0 23.6201 0C14.3701 0 5.59007 5.47 1.82007 14.54C-3.18993 26.57 2.50007 40.39 14.5401 45.4C17.5001 46.63 20.5801 47.22 23.6001 47.22C32.8501 47.22 41.6201 41.75 45.4001 32.68C50.4101 20.64 44.7101 6.83 32.6801 1.82ZM40.2501 30.54C37.4401 37.29 30.9001 41.65 23.5901 41.65C21.2201 41.65 18.8901 41.18 16.6701 40.26C12.2201 38.41 8.76007 34.94 6.93007 30.48C5.09007 26.03 5.10007 21.13 6.95007 16.68C9.77007 9.93 16.3101 5.57 23.6201 5.57C25.9901 5.57 28.3201 6.04 30.5401 6.96C34.9901 8.81 38.4501 12.28 40.2801 16.74C42.1101 21.19 42.1101 26.09 40.2501 30.54Z" fill="#1B1D22"/>
<path d="M30.0102 17.2H17.2002V30.01H30.0102V17.2Z" stroke="#1B1D22" stroke-width="4.6253" stroke-miterlimit="10" stroke-linejoin="round"/>
</g>
<defs>
<clipPath id="clip0">
<rect width="47.22" height="47.22" fill="white"/>
</clipPath>
</defs>
</svg>
