<svg width="48" height="48" viewBox="0 0 48 48" fill="none" xmlns="http://www.w3.org/2000/svg">
<g clip-path="url(#clip0)">
<path d="M32.68 1.82C29.71 0.58 26.64 0 23.62 0C14.37 0 5.58999 5.47 1.81999 14.54C-3.19001 26.57 2.49999 40.39 14.54 45.4C17.5 46.63 20.58 47.22 23.6 47.22C32.85 47.22 41.62 41.75 45.4 32.68C50.41 20.64 44.71 6.83 32.68 1.82ZM40.25 30.54C37.44 37.29 30.9 41.65 23.59 41.65C21.22 41.65 18.89 41.18 16.67 40.26C12.22 38.41 8.75999 34.94 6.92999 30.48C5.08999 26.03 5.09999 21.13 6.94999 16.68C9.76999 9.93 16.31 5.57 23.62 5.57C25.99 5.57 28.32 6.04 30.54 6.96C34.99 8.81 38.45 12.28 40.28 16.74C42.11 21.19 42.11 26.09 40.25 30.54Z" fill="#1B1D22"/>
<path d="M14.22 30.27V24.18L18.14 15.64H21.19L17.87 23.97H20.21V30.28H14.22V30.27ZM24.61 30.27V24.18L28.53 15.64H31.58L28.26 23.97H30.6V30.28H24.61V30.27Z" fill="#1B1D22"/>
</g>
<defs>
<clipPath id="clip0">
<rect width="47.22" height="47.22" fill="white"/>
</clipPath>
</defs>
</svg>
