<svg width="28" height="27" viewBox="0 0 28 27" fill="none" xmlns="http://www.w3.org/2000/svg">
<path d="M16.2216 21.0005L13.9051 20.885L11.8829 24.0186C11.3163 22.8463 11.3555 21.4146 12.1139 20.24C12.8722 19.0654 14.1601 18.44 15.4632 18.4749L20.6605 10.4294C20.0939 9.25485 20.1332 7.82315 20.8915 6.64858C21.6499 5.47401 22.9377 4.8486 24.2409 4.88346L22.2164 8.01927L23.2733 10.0808L25.5876 10.1962L27.612 7.06044C28.1786 8.23283 28.1394 9.66454 27.3789 10.8391C26.6205 12.0137 25.3326 12.6391 24.0295 12.6064L18.8366 20.6497C19.4031 21.8242 19.3639 23.2559 18.6056 24.4305C17.8472 25.6051 16.5593 26.2305 15.2562 26.1956L17.2806 23.062L16.2216 21.0005Z" fill="#808F95"/>
<path d="M16.2216 21.0005L13.9051 20.885L11.8829 24.0186C11.3163 22.8463 11.3555 21.4146 12.1139 20.24C12.8722 19.0654 14.1601 18.44 15.4632 18.4749L20.6605 10.4294C20.0939 9.25485 20.1332 7.82315 20.8915 6.64858C21.6499 5.47401 22.9377 4.8486 24.2409 4.88346L22.2164 8.01927L23.2733 10.0808" fill="#AABBC1"/>
<path d="M14.6634 0.723432L4.22522 1.7825L2.57778 1.9503C1.36399 2.07233 1.17004 2.71518 1.28118 3.92679L2.79787 20.3206C2.90901 21.5322 3.18358 21.7567 4.39738 21.6346L6.04482 21.4668L16.4852 20.4099C17.699 20.2879 18.5924 19.2049 18.4813 17.9933L17.067 2.69775C16.9537 1.48396 15.8772 0.601399 14.6634 0.723432Z" fill="#3D4247"/>
<path d="M13.8746 0.348617L3.48219 1.83698L1.84347 2.07233C0.634035 2.24448 0.46624 2.89605 0.627497 4.10113L2.80012 20.4143C2.9592 21.6194 3.24467 21.8329 4.45192 21.6608L6.09282 21.4254L16.483 19.9371C17.6903 19.7649 18.5402 18.647 18.3789 17.4398L16.3523 2.21833C16.191 1.01326 15.0818 0.176464 13.8746 0.348617Z" fill="#CFCFCF"/>
<path d="M13.1902 0.0348588L2.85229 1.88932L6.12975 21.3688L16.4655 19.5144C17.6662 19.2986 18.4769 18.1524 18.2764 16.9538L15.7311 1.81523C15.5285 0.616694 14.3909 -0.180878 13.1902 0.0348588Z" fill="#1C58D9"/>
<path d="M1.22237 2.18129C0.0216546 2.39703 -0.126528 3.05077 0.0761336 4.25149L2.80662 20.4753C3.00928 21.676 3.29911 21.8787 4.49982 21.663L6.13201 21.371L2.85238 1.88928L1.22237 2.18129Z" fill="#3D4247"/>
<path d="M13.5563 7.59003L7.15174 8.73844L6.72681 6.20408L13.1292 5.05566L13.5563 7.59003Z" fill="white"/>
</svg>
