<svg width="25" height="31" viewBox="0 0 25 31" fill="none" xmlns="http://www.w3.org/2000/svg">
<path d="M3.05711 26.9926C3.70208 26.9926 4.22494 26.4698 4.22494 25.8248C4.22494 25.1798 3.70208 24.657 3.05711 24.657C2.41214 24.657 1.88928 25.1798 1.88928 25.8248C1.88928 26.4698 2.41214 26.9926 3.05711 26.9926Z" fill="#195B3D"/>
<path d="M17.5692 30.4799C18.2142 30.4799 18.737 29.9571 18.737 29.3121C18.737 28.6671 18.2142 28.1443 17.5692 28.1443C16.9242 28.1443 16.4014 28.6671 16.4014 29.3121C16.4014 29.9571 16.9242 30.4799 17.5692 30.4799Z" fill="#195B3D"/>
<path d="M23.0621 27.1997C23.7071 27.1997 24.2299 26.6768 24.2299 26.0318C24.2299 25.3869 23.7071 24.864 23.0621 24.864C22.4171 24.864 21.8943 25.3869 21.8943 26.0318C21.8943 26.6768 22.4171 27.1997 23.0621 27.1997Z" fill="#195B3D"/>
<path d="M24.9999 14.4862L5.16626 12.0988L0 14.4862L20.1183 29.076C21.8264 27.6073 23.5247 26.3521 24.3626 25.7537C24.699 25.511 24.8996 25.1261 24.9061 24.712C24.9287 22.3505 25.0031 14.4895 24.9999 14.4862Z" fill="#227551"/>
<path d="M24.9999 14.4862L5.16626 12.0988L0 14.4862L20.5162 17.3718L24.9999 14.4862Z" fill="#195B3D"/>
<path d="M20.6909 7.92893C20.6909 7.92893 19.6945 8.83796 18.0285 9.92167C17.5724 7.27223 16.3108 3.99843 13.8133 0C13.8133 0 12.9981 4.28634 10.2775 8.34624C9.09028 6.50877 8.58239 5.06921 8.58239 5.06921C0.0258794 13.6225 7.11695 19.6881 11.5715 19.6881C17.2909 19.6881 22.3213 16.9448 20.6909 7.92893Z" fill="#C43133"/>
<path d="M17.3297 15.5635C17.8246 14.4733 18.1675 13.079 18.2484 11.2998C18.2484 11.2998 17.5496 11.9047 16.3851 12.6294C16.0648 10.8599 15.1849 8.67948 13.4348 6.01385C13.4348 6.01385 12.8622 8.87357 10.96 11.578C10.1286 10.3552 9.77276 9.39117 9.77276 9.39117C8.34937 11.6298 7.79619 13.4058 7.76384 14.7903C6.97774 14.5024 6.49573 14.2566 6.49573 14.2566C7.83824 18.2679 10.6203 19.1414 11.8658 19.1414C14.0915 19.1414 16.3559 18.4815 18.6042 15.3015C18.6042 15.2982 18.1093 15.4341 17.3297 15.5635Z" fill="#E07315"/>
<path d="M9.19698 13.7325C9.19698 13.7325 10.1125 14.9877 10.8112 14.6836C10.8112 14.6836 12.1376 12.6164 14.0397 11.468C14.0397 11.468 13.6483 14.6189 14.098 15.1753C14.6932 15.9161 16.3075 14.3536 16.3075 14.3536C16.3075 16.217 14.2694 18.5623 12.4481 18.5623C10.6365 18.5656 8.07121 16.5437 9.19698 13.7325Z" fill="#FFBC1F"/>
<path d="M18.3325 5.28919C19.0184 4.29282 19.4874 3.26733 19.4874 3.26733C20.6391 5.16303 19.9597 6.31468 19.4518 6.68994C18.7725 7.19783 17.54 6.44085 18.3325 5.28919Z" fill="#C43133"/>
<path d="M5.79386 4.96567C5.12098 3.80755 5.04658 2.36798 5.04658 2.36798C3.40321 4.84597 4.04697 6.19172 4.59368 6.60257C5.32479 7.14604 6.57025 6.30171 5.79386 4.96567Z" fill="#C43133"/>
<path d="M9.61756 2.39062C9.70167 1.61422 9.37817 0.808716 9.37817 0.808716C10.9374 1.81479 10.918 2.68824 10.7142 3.03114C10.436 3.48728 9.52051 3.28994 9.61756 2.39062Z" fill="#C43133"/>
<path d="M20.7362 27.3873C20.7362 28.9013 19.6654 29.8653 18.3682 29.5515L1.97334 25.5692C1.00931 25.3363 0.236153 24.1167 0.236153 22.8422L0 14.4862L20.5162 17.375L20.7362 27.3873Z" fill="#339970"/>
<path d="M19.1964 20.458L1.65955 17.6015V16.7993L19.1964 19.6557V20.458Z" fill="#195B3D"/>
<path d="M19.1964 25.2619L1.88928 21.9202V21.1179L19.1964 24.4629V25.2619Z" fill="#195B3D"/>
</svg>
