<svg width="30" height="26" viewBox="0 0 30 26" fill="none" xmlns="http://www.w3.org/2000/svg">
<path d="M21.8103 6.46232C20.9746 5.31922 21.2235 3.7138 22.3666 2.87553L20.2659 0L0 14.812L2.1033 17.6901C3.2464 16.8544 4.85182 17.1033 5.69009 18.2464C6.52583 19.3895 6.27688 20.9949 5.13379 21.8332L7.23709 24.7113L27.503 9.89924L25.3997 7.02117C24.2515 7.8569 22.6461 7.60796 21.8103 6.46232Z" fill="#FFBC1F"/>
<path d="M21.7569 12.0559L11.0346 19.8925C10.5749 20.2278 9.92456 20.1262 9.58925 19.6664L5.51727 14.0983C5.18197 13.6385 5.28358 12.9882 5.74335 12.6529L16.4656 4.81629C16.9254 4.48098 17.5757 4.58259 17.911 5.04237L21.983 10.6131C22.3158 11.0703 22.2167 11.7206 21.7569 12.0559Z" stroke="#1E325C" stroke-width="0.381033" stroke-miterlimit="10"/>
<path d="M15.4657 4.23462L14.8279 4.70081L15.6793 5.86576L16.3172 5.39957L15.4657 4.23462Z" fill="white"/>
<path d="M19.7245 10.0592L19.0867 10.5254L19.9381 11.6903L20.5759 11.2242L19.7245 10.0592Z" fill="white"/>
<path d="M18.3053 8.11835L17.6675 8.58453L18.5189 9.74949L19.1568 9.2833L18.3053 8.11835Z" fill="white"/>
<path d="M16.8849 6.17542L16.2471 6.6416L17.0985 7.80655L17.7363 7.34037L16.8849 6.17542Z" fill="white"/>
<path d="M21.1452 12.0021L20.5073 12.4683L21.3587 13.6332L21.9966 13.167L21.1452 12.0021Z" fill="white"/>
<path opacity="0.5" d="M5.38532 10.8747L2.77905 12.7799V14.4386C4.1965 14.4386 5.34468 15.5868 5.34468 17.0042C5.34468 17.271 5.30403 17.525 5.23037 17.7663C5.39802 17.9035 5.55551 18.061 5.69015 18.2439C6.52588 19.387 6.27694 20.9924 5.13384 21.8307L6.08642 23.1338H9.39125L26.1643 10.8747H5.38532Z" fill="#954D0E"/>
<path d="M27.4344 18.8916C27.4344 17.4742 28.5826 16.326 30.0001 16.326V12.7621H4.90015V16.326C6.31759 16.326 7.46577 17.4742 7.46577 18.8916C7.46577 20.3091 6.31759 21.4573 4.90015 21.4573V25.0212H30.0001V21.4573C28.5826 21.4573 27.4344 20.3065 27.4344 18.8916Z" fill="#FFBC1F"/>
<path d="M24.0888 23.3751H10.8111C10.2421 23.3751 9.77466 22.9102 9.77466 22.3387V15.442C9.77466 14.873 10.2395 14.4056 10.8111 14.4056H24.0913C24.6603 14.4056 25.1277 14.8704 25.1277 15.442V22.3412C25.1252 22.9102 24.6578 23.3751 24.0888 23.3751Z" stroke="#1E325C" stroke-width="0.381033" stroke-miterlimit="10"/>
<path d="M23.6267 13.3463H22.8367V14.7892H23.6267V13.3463Z" fill="white"/>
<path d="M23.6267 20.563H22.8367V22.0059H23.6267V20.563Z" fill="white"/>
<path d="M23.6267 18.1575H22.8367V19.6003H23.6267V18.1575Z" fill="white"/>
<path d="M23.6267 15.7519H22.8367V17.1947H23.6267V15.7519Z" fill="white"/>
<path d="M23.6267 22.9687H22.8367V24.4115H23.6267V22.9687Z" fill="white"/>
</svg>
