<svg width="28" height="28" viewBox="0 0 28 28" fill="none" xmlns="http://www.w3.org/2000/svg">
<path d="M1.6752 15.3336H8.82141L5.24967 6.23619L1.6752 15.3336ZM10.0621 16.1862H0.437256L5.24967 3.93793L10.0621 16.1862Z" fill="#CFCFCF"/>
<path d="M19.1759 15.3336H26.3221L22.7504 6.23619L19.1759 15.3336ZM27.5601 16.1862H17.938L22.7504 3.93793L27.5601 16.1862Z" fill="#CFCFCF"/>
<path d="M22.537 3.85321C22.537 3.85321 21.5313 3.46515 20.9656 3.23287C18.9598 2.4103 16.4702 1.38824 13.9998 1.38824C11.5294 1.38824 9.03709 2.4103 7.03397 3.23287C6.46828 3.46515 5.46262 3.85321 5.46262 3.85321L3.92407 5.04196C3.92407 5.04196 5.16475 5.82627 5.80969 5.59398C6.30705 5.41635 6.85087 5.19227 7.42476 4.95725C9.34316 4.17021 11.7289 3.18914 13.9998 3.18914C16.2707 3.18914 18.6592 4.17021 20.5749 4.95725C21.1487 5.195 21.6926 5.41635 22.1899 5.59398C22.8349 5.829 24.0755 5.04196 24.0755 5.04196L22.537 3.85321Z" fill="#B7C1C4"/>
<path d="M0 15.3117C0 18.2112 2.35019 20.5614 5.24966 20.5614C8.14913 20.5614 10.4993 18.2112 10.4993 15.3117H0Z" fill="#FFBC1F"/>
<path d="M17.498 15.3117C17.498 18.2112 19.8482 20.5614 22.7477 20.5614C25.6472 20.5614 27.9974 18.2112 27.9974 15.3117H17.498Z" fill="#FFBC1F"/>
<path d="M14.8745 4.81244H13.1255V24.0621H14.8745V4.81244Z" fill="#B7C1C4"/>
<path d="M15.4101 7.77203H12.5872V24.0621H15.4101V7.77203Z" fill="#CFCFCF"/>
<path d="M15.995 16.1862H12.0051V25.3711H15.995V16.1862Z" fill="#B7C1C4"/>
<path d="M5.24971 3.50067C6.21711 3.50067 6.99868 4.28498 6.99868 5.24965C6.99868 6.21705 6.21438 6.99862 5.24971 6.99862C4.28231 6.99862 3.50073 6.21431 3.50073 5.24965C3.50073 4.28224 4.28231 3.50067 5.24971 3.50067Z" fill="#DAB471"/>
<path d="M22.7502 3.50067C23.7176 3.50067 24.4992 4.28498 24.4992 5.24965C24.4992 6.21705 23.7149 6.99862 22.7502 6.99862C21.7828 6.99862 21.0012 6.21431 21.0012 5.24965C20.9985 4.28224 21.7828 3.50067 22.7502 3.50067Z" fill="#555B60"/>
<path d="M5.24971 3.50067C6.21711 3.50067 6.99868 4.28498 6.99868 5.24965C6.99868 6.21705 6.21438 6.99862 5.24971 6.99862C4.28231 6.99862 3.50073 6.21431 3.50073 5.24965C3.50073 4.28224 4.28231 3.50067 5.24971 3.50067Z" fill="#555B60"/>
<path d="M14 0C15.4483 0 16.6234 1.17509 16.6234 2.62346C16.6234 4.07183 15.4483 5.24966 14 5.24966C12.5516 5.24966 11.3738 4.07457 11.3738 2.62346C11.3738 1.17509 12.5489 0 14 0Z" fill="#CFCFCF"/>
<path d="M13.9999 20.1241C10.133 20.1241 7.00122 22.0835 7.00122 24.4993H21.0012C20.9985 22.0835 17.864 20.1241 13.9999 20.1241Z" fill="#CFCFCF"/>
<path d="M21.8732 24.4993H6.12427V26.2483H21.8732V24.4993Z" fill="#555B60"/>
<path d="M23.6249 26.2483H4.37524V27.9973H23.6249V26.2483Z" fill="#6A767C"/>
</svg>
