<svg width="34" height="22" viewBox="0 0 34 22" fill="none" xmlns="http://www.w3.org/2000/svg">
<path d="M17.0005 20.9723C22.5066 20.9723 26.9701 19.7177 26.9701 18.17C26.9701 16.6224 22.5066 15.3678 17.0005 15.3678C11.4943 15.3678 7.03076 16.6224 7.03076 18.17C7.03076 19.7177 11.4943 20.9723 17.0005 20.9723Z" fill="#1B1D22"/>
<path d="M34 9.04673L16.9997 0L7.73734 4.92878L6.76607 5.44575L4.98571 6.39286L0 9.04673V9.56025H0.502021V9.31413L5.56134 12.0065L5.69877 12.0796L12.4677 15.6817C13.8277 15.4827 15.3683 15.3706 16.9997 15.3706C18.6311 15.3706 20.1717 15.4827 21.5317 15.6817L33.4974 9.31413V9.55853H33.9994V9.04673H34Z" fill="#5A6072"/>
<path d="M33.5906 9.35359L17.0003 1.12976L0.409438 9.35359L0 9.55659L11.8593 15.8672C12.0577 15.8333 12.2607 15.8011 12.4677 15.7706C13.8277 15.5716 15.3683 15.4595 16.9997 15.4595C18.6311 15.4595 20.1717 15.5716 21.5317 15.7706C21.7387 15.8011 21.9417 15.8333 22.1401 15.8672L33.9994 9.55659L33.59 9.35417L33.5906 9.35359Z" fill="#1B1D22"/>
<path d="M6.18763 4.94713C5.76497 5.35887 5.39751 5.86779 5.20084 6.4555C5.03925 6.93509 4.95472 7.46702 4.95184 8.03977C4.94724 8.97595 4.91504 13.2446 4.91504 13.2607C4.91504 13.2624 5.69136 13.2653 5.69136 13.2653C5.69136 13.2308 5.72241 9.13122 5.72759 8.04494C5.73334 6.92129 6.0962 6.05986 6.76556 5.50839C7.03928 5.28354 7.36419 5.04777 7.73682 4.92931L9.50684 3.98737C8.39813 3.82636 6.94843 4.20417 6.18706 4.94713H6.18763Z" fill="#FFBC1F"/>
<path d="M5.79247 14.833H4.81431L3.83154 21.8964H4.02189L4.39394 19.6658L4.37842 21.8964H6.77524L5.79247 14.833Z" fill="#FFBC1F"/>
<path d="M4.98891 13.2112H5.61744C5.78823 13.2112 5.92739 13.3498 5.92739 13.5211V14.8639C5.92739 15.0347 5.78881 15.1738 5.61744 15.1738H4.98891C4.81812 15.1738 4.67896 15.0352 4.67896 14.8639V13.5211C4.67896 13.3503 4.81754 13.2112 4.98891 13.2112Z" fill="#C98D14"/>
<path d="M26.9703 18.2931C26.7978 16.7595 22.4004 15.5317 17.0001 15.5317C14.4681 15.5317 12.1564 15.8014 10.3979 16.246C8.40531 16.7503 7.12179 17.4783 7.02979 18.2931L7.52491 11.1481L7.64394 9.42928C7.64394 9.38615 7.64797 9.34359 7.65487 9.30161C7.78253 8.52529 9.0649 7.83581 11.0224 7.37001C12.6435 6.98415 14.7274 6.75183 17.0006 6.75183C22.1675 6.75183 26.3567 7.95082 26.3567 9.42928L26.9709 18.2931H26.9703Z" fill="#363A45"/>
<g style="mix-blend-mode:screen" opacity="0.35">
<path d="M11.0218 7.37012L10.3979 16.2466C8.40531 16.751 7.12179 17.479 7.02979 18.2938L7.52491 11.1488L7.65429 9.30229C7.78195 8.52597 9.06432 7.83648 11.0218 7.37069V7.37012Z" fill="#5A6072"/>
</g>
<g style="mix-blend-mode:screen" opacity="0.35">
<path d="M22.9775 7.37012L23.6015 16.2466C25.594 16.751 26.8775 17.479 26.9696 18.2938L26.4744 11.1488L26.345 9.30229C26.2174 8.52597 24.935 7.83648 22.9775 7.37069V7.37012Z" fill="#5A6072"/>
</g>
</svg>
