<svg width="28" height="16" viewBox="0 0 28 16" fill="none" xmlns="http://www.w3.org/2000/svg">
<path d="M24.7668 8.00366C24.7668 10.5272 22.7146 12.5794 20.1936 12.5794C17.6701 12.5794 15.6179 10.5272 15.6179 8.00366C15.6179 7.96779 15.6179 7.90886 15.6179 7.85763C15.6179 7.84225 15.6179 7.82176 15.6179 7.80895C15.6179 6.06423 15.0363 4.4553 14.0653 3.15381C12.6383 1.24513 10.3684 0 7.80895 0C3.50224 0 0 3.50224 0 7.80895H3.23323C3.23323 5.28539 5.28539 3.23579 7.80639 3.23579C10.3299 3.23579 12.3821 5.28795 12.3821 7.80895H12.3847C12.3821 7.873 12.3821 7.93705 12.3821 8.00366C12.3821 9.74325 12.9611 11.3471 13.927 12.646C15.3514 14.5624 17.6239 15.8126 20.191 15.8126C24.4978 15.8126 28 12.3104 28 8.00366H24.7668Z" fill="#FFBC1F"/>
<path d="M7.80895 12.3821C5.50572 12.3821 3.60216 10.6706 3.28703 8.45452H3.28447L3.28191 8.40584L3.23836 7.80634H0C0 7.89601 0.0230579 8.35973 0.0281819 8.45452C0.0281819 8.46477 0.0281819 8.47502 0.0281819 8.47502H0.0333059C0.374051 12.4692 3.7277 15.6153 7.80895 15.6153C10.0507 15.6153 12.0695 14.6597 13.494 13.143C12.7408 12.1643 12.2002 11.0216 11.9338 9.77394C11.1959 11.3137 9.6254 12.3821 7.80895 12.3821Z" fill="#1E325C"/>
<path d="M27.9717 7.35547V7.32728H27.9666C27.6207 3.33826 24.2696 0.194702 20.1909 0.194702C17.9364 0.194702 15.9175 1.13751 14.4956 2.65421C15.2488 3.63033 15.7971 4.77042 16.0687 6.01554C16.804 4.47835 18.3668 3.42793 20.1909 3.42793C22.4941 3.42793 24.3977 5.13934 24.7128 7.35547H24.7154L24.718 7.39902L24.7615 8.00109H27.9947L27.9717 7.35547Z" fill="#1E325C"/>
</svg>
