<svg width="39" height="24" viewBox="0 0 39 24" fill="none" xmlns="http://www.w3.org/2000/svg">
<rect y="9.91821e-05" width="39" height="24" rx="4" fill="#3DB887"/>
<path d="M14 4.49415C12.644 4.49415 11.384 4.83615 10.22 5.52015C9.092 6.19215 8.192 7.09215 7.52 8.22015C6.836 9.38415 6.494 10.6441 6.494 12.0001C6.494 13.3561 6.836 14.6161 7.52 15.7801C8.192 16.9081 9.092 17.8081 10.22 18.4801C11.384 19.1641 12.644 19.5061 14 19.5061C15.356 19.5061 16.616 19.1641 17.78 18.4801C18.908 17.8081 19.808 16.9081 20.48 15.7801C21.164 14.6161 21.506 13.3561 21.506 12.0001C21.506 10.6441 21.164 9.38415 20.48 8.22015C19.808 7.09215 18.908 6.19215 17.78 5.52015C16.616 4.83615 15.356 4.49415 14 4.49415ZM14 17.9941C12.908 17.9941 11.9 17.7241 10.976 17.1841C10.076 16.6441 9.356 15.9241 8.816 15.0241C8.276 14.1001 8.006 13.0921 8.006 12.0001C8.006 10.9081 8.276 9.90015 8.816 8.97615C9.356 8.07615 10.076 7.35615 10.976 6.81615C11.9 6.27615 12.908 6.00615 14 6.00615C15.092 6.00615 16.1 6.27615 17.024 6.81615C17.924 7.35615 18.644 8.07615 19.184 8.97615C19.724 9.90015 19.994 10.9081 19.994 12.0001C19.994 13.0921 19.724 14.1001 19.184 15.0241C18.644 15.9241 17.924 16.6441 17.024 17.1841C16.1 17.7241 15.092 17.9941 14 17.9941ZM17.438 8.68815L12.506 13.6201L10.562 11.6941L9.5 12.7561L12.506 15.7441L18.5 9.75015L17.438 8.68815Z" fill="white"/>
<path d="M30.9106 16.0001H29.6431V10.9459C29.6431 10.6952 29.6466 10.4446 29.6538 10.1939C29.661 9.9433 29.6717 9.70697 29.686 9.48496C29.6073 9.56732 29.5142 9.65684 29.4067 9.75352C29.2993 9.8502 29.1847 9.95046 29.063 10.0543L28.1606 10.774L27.5269 9.97373L29.8579 8.14756H30.9106V16.0001Z" fill="white"/>
</svg>
