<svg width="103" height="24" viewBox="0 0 103 24" fill="none" xmlns="http://www.w3.org/2000/svg">
<rect y="0.000106812" width="103" height="24" rx="4" fill="#3DB887" fill-opacity="0.12"/>
<path d="M14 4.49416C12.644 4.49416 11.384 4.83616 10.22 5.52015C9.092 6.19215 8.192 7.09216 7.52 8.22016C6.836 9.38416 6.494 10.6442 6.494 12.0002C6.494 13.3562 6.836 14.6162 7.52 15.7802C8.192 16.9082 9.092 17.8082 10.22 18.4802C11.384 19.1642 12.644 19.5062 14 19.5062C15.356 19.5062 16.616 19.1642 17.78 18.4802C18.908 17.8082 19.808 16.9082 20.48 15.7802C21.164 14.6162 21.506 13.3562 21.506 12.0002C21.506 10.6442 21.164 9.38416 20.48 8.22016C19.808 7.09216 18.908 6.19215 17.78 5.52015C16.616 4.83616 15.356 4.49416 14 4.49416ZM14 17.9942C12.908 17.9942 11.9 17.7242 10.976 17.1842C10.076 16.6442 9.356 15.9242 8.816 15.0242C8.276 14.1002 8.006 13.0922 8.006 12.0002C8.006 10.9082 8.276 9.90016 8.816 8.97616C9.356 8.07615 10.076 7.35615 10.976 6.81616C11.9 6.27616 12.908 6.00616 14 6.00616C15.092 6.00616 16.1 6.27616 17.024 6.81616C17.924 7.35615 18.644 8.07615 19.184 8.97616C19.724 9.90016 19.994 10.9082 19.994 12.0002C19.994 13.0922 19.724 14.1002 19.184 15.0242C18.644 15.9242 17.924 16.6442 17.024 17.1842C16.1 17.7242 15.092 17.9942 14 17.9942ZM17.438 8.68815L12.506 13.6202L10.562 11.6942L9.5 12.7562L12.506 15.7442L18.5 9.75016L17.438 8.68815Z" fill="#3DB887"/>
<path d="M32.4717 16.0001L31.6875 13.8194H28.6851L27.917 16.0001H26.5635L29.5015 8.11534H30.8979L33.8359 16.0001H32.4717ZM31.3491 12.713L30.6133 10.5753C30.5596 10.4321 30.4844 10.2065 30.3877 9.89854C30.2946 9.5906 30.2301 9.36502 30.1943 9.22179C30.0977 9.66222 29.9562 10.1438 29.77 10.6666L29.061 12.713H31.3491ZM37.1338 16.1075C36.235 16.1075 35.5511 15.8461 35.082 15.3233C34.6165 14.797 34.3838 14.0432 34.3838 13.0621C34.3838 12.0631 34.6273 11.295 35.1143 10.7579C35.6048 10.2208 36.312 9.95226 37.2358 9.95226C37.8625 9.95226 38.4264 10.0686 38.9277 10.3014L38.5464 11.3165C38.0129 11.1088 37.5724 11.005 37.2251 11.005C36.1974 11.005 35.6836 11.6871 35.6836 13.0514C35.6836 13.7174 35.8107 14.2187 36.0649 14.5553C36.3228 14.8883 36.6987 15.0548 37.1929 15.0548C37.755 15.0548 38.2868 14.9151 38.7881 14.6358V15.7369C38.5625 15.8694 38.3208 15.9643 38.063 16.0216C37.8088 16.0789 37.499 16.1075 37.1338 16.1075ZM41.4038 12.8634L42.1182 11.9718L43.9121 10.0597H45.3677L42.9775 12.6109L45.5181 16.0001H44.0356L42.1289 13.3951L41.436 13.9645V16.0001H40.1846V7.64268H41.436V11.7193L41.3716 12.8634H41.4038ZM51.7056 16.0001H50.438V12.3478C50.438 11.8894 50.3449 11.5475 50.1587 11.3219C49.9761 11.0963 49.6842 10.9835 49.2832 10.9835C48.7497 10.9835 48.3594 11.1411 48.1123 11.4562C47.8652 11.7713 47.7417 12.2994 47.7417 13.0406V16.0001H46.4795V10.0597H47.4678L47.645 10.8385H47.7095C47.8885 10.5556 48.1427 10.3372 48.4722 10.1832C48.8016 10.0292 49.1668 9.95226 49.5679 9.95226C50.993 9.95226 51.7056 10.6774 51.7056 12.1275V16.0001ZM58.731 13.0191C58.731 13.9895 58.4821 14.7469 57.9844 15.2911C57.4867 15.8354 56.7938 16.1075 55.9058 16.1075C55.3507 16.1075 54.8602 15.9822 54.4341 15.7316C54.008 15.4809 53.6803 15.121 53.4512 14.652C53.222 14.1829 53.1074 13.6386 53.1074 13.0191C53.1074 12.0559 53.3545 11.304 53.8486 10.7633C54.3428 10.2226 55.0392 9.95226 55.938 9.95226C56.7974 9.95226 57.4777 10.2298 57.979 10.7848C58.4803 11.3362 58.731 12.081 58.731 13.0191ZM54.4072 13.0191C54.4072 14.3906 54.9139 15.0763 55.9272 15.0763C56.9299 15.0763 57.4312 14.3906 57.4312 13.0191C57.4312 11.6621 56.9263 10.9835 55.9165 10.9835C55.3866 10.9835 55.0016 11.159 54.7617 11.5099C54.5254 11.8608 54.4072 12.3639 54.4072 13.0191ZM65.0581 16.0001L64.29 13.2286C64.1969 12.935 64.0286 12.2529 63.7852 11.1822H63.7368C63.5291 12.149 63.3644 12.8347 63.2427 13.2394L62.4531 16.0001H61.0566L59.3916 10.0597H60.6807L61.438 12.9869C61.6099 13.7102 61.7316 14.3297 61.8032 14.8453H61.8354C61.8713 14.5839 61.925 14.2849 61.9966 13.9483C62.0718 13.6082 62.1362 13.3539 62.1899 13.1857L63.0923 10.0597H64.478L65.3535 13.1857C65.4072 13.3611 65.4735 13.6297 65.5522 13.9913C65.6346 14.353 65.6829 14.6341 65.6973 14.8346H65.7402C65.7939 14.3941 65.9193 13.7783 66.1162 12.9869L66.8843 10.0597H68.1519L66.4761 16.0001H65.0581ZM70.4399 16.0001H69.1777V7.64268H70.4399V16.0001ZM74.8442 16.1075C73.9204 16.1075 73.1971 15.839 72.6743 15.3019C72.1551 14.7612 71.8955 14.0182 71.8955 13.0729C71.8955 12.1025 72.1372 11.3398 72.6206 10.7848C73.104 10.2298 73.7682 9.95226 74.6133 9.95226C75.3975 9.95226 76.0169 10.1904 76.4717 10.6666C76.9264 11.1428 77.1538 11.7981 77.1538 12.6324V13.3146H73.1953C73.2132 13.8911 73.369 14.3351 73.6626 14.6466C73.9562 14.9545 74.3698 15.1085 74.9033 15.1085C75.2542 15.1085 75.5801 15.0763 75.8809 15.0118C76.1852 14.9438 76.5111 14.8328 76.8584 14.6788V15.7047C76.5505 15.8515 76.2389 15.9553 75.9238 16.0162C75.6087 16.0771 75.2489 16.1075 74.8442 16.1075ZM74.6133 10.9083C74.2122 10.9083 73.89 11.0354 73.6465 11.2897C73.4066 11.5439 73.2633 11.9145 73.2168 12.4015H75.9131C75.9059 11.9109 75.7878 11.5403 75.5586 11.2897C75.3294 11.0354 75.0143 10.9083 74.6133 10.9083ZM80.5913 16.1075C79.8501 16.1075 79.2718 15.839 78.8564 15.3019C78.4411 14.7648 78.2334 14.011 78.2334 13.0406C78.2334 12.0667 78.4429 11.3094 78.8618 10.7687C79.2843 10.2244 79.868 9.95226 80.6128 9.95226C81.3934 9.95226 81.9878 10.2405 82.396 10.817H82.4604C82.3996 10.3909 82.3691 10.0543 82.3691 9.80724V7.64268H83.6367V16.0001H82.6484L82.4282 15.2213H82.3691C81.9645 15.8121 81.3719 16.1075 80.5913 16.1075ZM80.9297 15.087C81.4489 15.087 81.8267 14.942 82.063 14.652C82.2993 14.3583 82.4211 13.8839 82.4282 13.2286V13.0514C82.4282 12.303 82.3065 11.7713 82.063 11.4562C81.8195 11.1411 81.4382 10.9835 80.9189 10.9835C80.4749 10.9835 80.133 11.1643 79.8931 11.526C79.6532 11.8841 79.5332 12.3961 79.5332 13.0621C79.5332 13.721 79.6496 14.2241 79.8823 14.5714C80.1151 14.9151 80.4642 15.087 80.9297 15.087ZM90.458 10.0597V10.7525L89.4429 10.9405C89.536 11.0659 89.613 11.2198 89.6738 11.4025C89.7347 11.5851 89.7651 11.7784 89.7651 11.9825C89.7651 12.5948 89.5539 13.0764 89.1313 13.4274C88.7088 13.7783 88.127 13.9537 87.3857 13.9537C87.196 13.9537 87.0241 13.9394 86.8701 13.9108C86.598 14.079 86.4619 14.276 86.4619 14.5016C86.4619 14.6376 86.5246 14.7397 86.6499 14.8077C86.7788 14.8758 87.0133 14.9098 87.3535 14.9098H88.3901C89.0454 14.9098 89.5431 15.0494 89.8833 15.3287C90.2235 15.608 90.3936 16.0108 90.3936 16.5372C90.3936 17.2104 90.116 17.7296 89.561 18.0948C89.006 18.4601 88.2039 18.6427 87.1548 18.6427C86.3455 18.6427 85.7279 18.4995 85.3018 18.213C84.8757 17.9265 84.6626 17.5183 84.6626 16.9884C84.6626 16.6232 84.7772 16.3152 85.0063 16.0646C85.2391 15.8175 85.5632 15.6456 85.9785 15.5489C85.8102 15.4773 85.6706 15.3627 85.5596 15.2052C85.4521 15.0441 85.3984 14.8758 85.3984 14.7003C85.3984 14.4783 85.4611 14.2903 85.5864 14.1363C85.7118 13.9824 85.8979 13.8302 86.145 13.6798C85.8371 13.5473 85.5864 13.3325 85.3931 13.0353C85.2033 12.7345 85.1084 12.3836 85.1084 11.9825C85.1084 11.338 85.3107 10.8385 85.7153 10.484C86.1235 10.1295 86.7036 9.95226 87.4556 9.95226C87.6239 9.95226 87.7993 9.96479 87.9819 9.98985C88.1681 10.0113 88.3078 10.0346 88.4009 10.0597H90.458ZM85.7905 16.9239C85.7905 17.1961 85.9123 17.4055 86.1558 17.5524C86.4028 17.6992 86.7484 17.7726 87.1924 17.7726C87.8799 17.7726 88.3919 17.6741 88.7285 17.4772C89.0651 17.2802 89.2334 17.0188 89.2334 16.693C89.2334 16.4352 89.1403 16.2508 88.9541 16.1398C88.7715 16.0323 88.4295 15.9786 87.9282 15.9786H86.9722C86.6105 15.9786 86.3223 16.0628 86.1074 16.2311C85.8962 16.4029 85.7905 16.6339 85.7905 16.9239ZM86.333 11.9825C86.333 12.3549 86.4279 12.6414 86.6177 12.8419C86.811 13.0424 87.0868 13.1427 87.4448 13.1427C88.1753 13.1427 88.5405 12.7524 88.5405 11.9718C88.5405 11.5851 88.4492 11.2879 88.2666 11.0802C88.0876 10.8689 87.8136 10.7633 87.4448 10.7633C87.0796 10.7633 86.8021 10.8671 86.6123 11.0748C86.4261 11.2825 86.333 11.5851 86.333 11.9825ZM94.1587 16.1075C93.2349 16.1075 92.5116 15.839 91.9888 15.3019C91.4696 14.7612 91.21 14.0182 91.21 13.0729C91.21 12.1025 91.4517 11.3398 91.9351 10.7848C92.4185 10.2298 93.0827 9.95226 93.9277 9.95226C94.7119 9.95226 95.3314 10.1904 95.7861 10.6666C96.2409 11.1428 96.4683 11.7981 96.4683 12.6324V13.3146H92.5098C92.5277 13.8911 92.6834 14.3351 92.9771 14.6466C93.2707 14.9545 93.6842 15.1085 94.2178 15.1085C94.5687 15.1085 94.8945 15.0763 95.1953 15.0118C95.4997 14.9438 95.8255 14.8328 96.1729 14.6788V15.7047C95.8649 15.8515 95.5534 15.9553 95.2383 16.0162C94.9232 16.0771 94.5633 16.1075 94.1587 16.1075ZM93.9277 10.9083C93.5267 10.9083 93.2044 11.0354 92.9609 11.2897C92.721 11.5439 92.5778 11.9145 92.5312 12.4015H95.2275C95.2204 11.9109 95.1022 11.5403 94.873 11.2897C94.6439 11.0354 94.3288 10.9083 93.9277 10.9083Z" fill="#3DB887"/>
</svg>
