<svg width="24" height="25" viewBox="0 0 24 25" fill="none" xmlns="http://www.w3.org/2000/svg">
<path d="M12 0.310059C14.1696 0.310059 16.1856 0.857258 18.048 1.95166C19.872 3.00766 21.312 4.44766 22.368 6.27166C23.4624 8.13406 24.0096 10.1501 24.0096 12.3197C24.0096 14.4893 23.4624 16.5053 22.368 18.3677C21.312 20.1917 19.872 21.6317 18.048 22.6877C16.1856 23.7821 14.1696 24.3293 12 24.3293C9.83042 24.3293 7.81442 23.7821 5.95202 22.6877C4.12802 21.6317 2.68802 20.1917 1.63202 18.3677C0.537617 16.5053 -0.00958252 14.4893 -0.00958252 12.3197C-0.00958252 10.1501 0.537617 8.13406 1.63202 6.27166C2.68802 4.44766 4.12802 3.00766 5.95202 1.95166C7.81442 0.857258 9.83042 0.310059 12 0.310059ZM9.89762 17.9357L19.2288 8.60446L17.5296 6.90526L9.89762 14.5661L6.49922 11.1677L4.80002 12.8669L8.19842 16.2653L9.89762 17.9357Z" fill="#3DB887"/>
</svg>
