<svg width="32" height="32" viewBox="0 0 32 32" fill="none" xmlns="http://www.w3.org/2000/svg">
<rect width="32" height="32" rx="4" fill="#3F4350" fill-opacity="0.08"/>
<path d="M16 8.49405C14.644 8.49405 13.384 8.83605 12.22 9.52005C11.092 10.192 10.192 11.092 9.52 12.22C8.836 13.384 8.494 14.644 8.494 16C8.494 17.356 8.836 18.616 9.52 19.78C10.192 20.908 11.092 21.808 12.22 22.48C13.384 23.164 14.644 23.506 16 23.506C17.356 23.506 18.616 23.164 19.78 22.48C20.908 21.808 21.808 20.908 22.48 19.78C23.164 18.616 23.506 17.356 23.506 16C23.506 14.644 23.164 13.384 22.48 12.22C21.808 11.092 20.908 10.192 19.78 9.52005C18.616 8.83605 17.356 8.49405 16 8.49405ZM16 21.994C14.92 21.994 13.912 21.718 12.976 21.166C12.076 20.638 11.362 19.924 10.834 19.024C10.282 18.088 10.006 17.08 10.006 16C10.006 14.92 10.282 13.912 10.834 12.976C11.362 12.076 12.076 11.362 12.976 10.834C13.912 10.282 14.92 10.006 16 10.006C17.08 10.006 18.088 10.282 19.024 10.834C19.924 11.362 20.638 12.076 21.166 12.976C21.718 13.912 21.994 14.92 21.994 16C21.994 17.08 21.718 18.088 21.166 19.024C20.638 19.924 19.924 20.638 19.024 21.166C18.088 21.718 17.08 21.994 16 21.994ZM16.378 16.756H15.622L15.244 12.256H16.756L16.378 16.756ZM16.756 19.006C16.756 19.21 16.678 19.384 16.522 19.528C16.378 19.672 16.204 19.744 16 19.744C15.796 19.744 15.616 19.672 15.46 19.528C15.316 19.384 15.244 19.21 15.244 19.006C15.244 18.802 15.316 18.628 15.46 18.484C15.616 18.328 15.796 18.25 16 18.25C16.204 18.25 16.378 18.328 16.522 18.484C16.678 18.628 16.756 18.802 16.756 19.006Z" fill="#3F4350" fill-opacity="0.72"/>
</svg>
