<svg width="48" height="48" viewBox="0 0 48 48" fill="none" xmlns="http://www.w3.org/2000/svg">
<path d="M32.6799 1.82C29.7099 0.58 26.6399 0 23.6199 0C14.3699 0 5.58995 5.47 1.81995 14.54C-3.19005 26.57 2.49995 40.39 14.5399 45.4C17.4999 46.63 20.5799 47.22 23.5999 47.22C32.8499 47.22 41.6199 41.75 45.3999 32.68C50.41 20.64 44.7099 6.83 32.6799 1.82ZM40.2499 30.54C37.4399 37.29 30.8999 41.65 23.5899 41.65C21.2199 41.65 18.8899 41.18 16.6699 40.26C12.2199 38.41 8.75995 34.94 6.92995 30.48C5.08995 26.03 5.09995 21.13 6.94995 16.68C9.76995 9.93 16.3099 5.57 23.6199 5.57C25.9899 5.57 28.3199 6.04 30.5399 6.96C34.9899 8.81 38.4499 12.28 40.2799 16.74C42.1099 21.19 42.1099 26.09 40.2499 30.54Z" fill="#1B1D22"/>
<path d="M30.01 17.2H17.2V30.01H30.01V17.2Z" stroke="#1B1D22" stroke-width="4.6253" stroke-miterlimit="10" stroke-linejoin="round"/>
</svg>
