<svg width="39" height="40" viewBox="0 0 39 40" fill="none" xmlns="http://www.w3.org/2000/svg">
<g id="CustomizeYourPreferences">
<path id="Vector" d="M29.0615 21.7004H9.14766C4.09555 21.7004 0 25.796 0 30.8481V30.8523C0 35.9044 4.09555 40 9.14766 40H29.0615C34.1136 40 38.2091 35.9044 38.2091 30.8523V30.8481C38.2091 25.796 34.1136 21.7004 29.0615 21.7004Z" fill="#FFBC1F"/>
<path id="Vector_2" d="M9.21088 38.7136C13.5525 38.7136 17.0722 35.194 17.0722 30.8524C17.0722 26.5107 13.5525 22.9911 9.21088 22.9911C4.86922 22.9911 1.34961 26.5107 1.34961 30.8524C1.34961 35.194 4.86922 38.7136 9.21088 38.7136Z" fill="#CC8F00"/>
<path id="Vector_3" d="M9.14824 18.2995L29.0621 18.2995C34.1142 18.2995 38.2097 14.204 38.2097 9.15184V9.14764C38.2097 4.09553 34.1142 -1.90735e-05 29.0621 -1.90735e-05L9.14824 -1.90735e-05C4.09612 -1.90735e-05 0.000572205 4.09553 0.000572205 9.14764V9.15184C0.000572205 14.204 4.09612 18.2995 9.14824 18.2995Z" fill="#FFBC1F"/>
<path id="Vector_4" d="M28.998 17.0089C33.3397 17.0089 36.8593 13.4893 36.8593 9.14763C36.8593 4.80597 33.3397 1.28636 28.998 1.28636C24.6563 1.28636 21.1367 4.80597 21.1367 9.14763C21.1367 13.4893 24.6563 17.0089 28.998 17.0089Z" fill="#CC8F00"/>
</g>
</svg>
