<svg width="32" height="45" viewBox="0 0 32 45" fill="none" xmlns="http://www.w3.org/2000/svg">
<g id="IntegrateExtend">
<path id="Vector" d="M4.48197 16.7221H26.5916C29.0656 16.7221 31.0735 18.73 31.0735 21.2041V40.9741H0V21.2041C0 18.73 2.00792 16.7221 4.48197 16.7221Z" fill="#FFBC1F"/>
<path id="Vector_2" d="M9.64537 40.9745H5.83569V44.7841H9.64537V40.9745Z" fill="#CC8F00"/>
<path id="Vector_3" d="M25.2333 40.9745H21.4236V44.7841H25.2333V40.9745Z" fill="#CC8F00"/>
<path id="Vector_4" d="M25.8969 19.223C25.2649 19.0392 24.2923 18.7882 24.0055 19.4292C23.6648 19.7832 24.2565 20.097 24.5523 20.2852C25.0543 20.6034 25.7983 20.5631 26.1299 21.0561C26.3182 21.3385 26.3047 21.706 26.4123 22.0287C26.7664 23.0954 28.5502 23.2657 28.4785 21.9256C28.4113 20.6438 27.0263 19.5502 25.8969 19.223Z" fill="#FFD791"/>
<path id="Vector_5" d="M15.5347 16.7222V-3.05176e-05" stroke="#CC8F00" stroke-width="2.488" stroke-miterlimit="10"/>
</g>
</svg>
