<svg width="61" height="56" viewBox="0 0 61 56" fill="none" xmlns="http://www.w3.org/2000/svg">
<path d="M6.82611 14.5417C7.51031 14.5059 8.00048 15.0676 7.90857 15.7824L7.25501 20.9803C7.1631 21.6951 6.55549 22.1189 5.90193 21.9146L1.04107 20.4186C0.387507 20.2195 -0.0771344 19.4689 0.0147727 18.7541L0.341553 16.1551C0.433461 15.4403 1.0666 14.8276 1.7508 14.797L6.82611 14.5417Z" fill="#546266"/>
<path d="M6.85113 25.3816C7.31067 24.871 8.05103 24.9221 8.49525 25.4939L11.712 29.6298C12.1562 30.1965 12.0184 30.9267 11.4159 31.2483L6.91751 33.6277C6.3099 33.9494 5.45721 33.7452 5.01299 33.1784L3.40462 31.1105C2.9604 30.5437 2.97572 29.6604 3.43525 29.1549L6.85113 25.3816Z" fill="#546266"/>
<path d="M14.5417 33.0252C14.5059 32.341 15.0676 31.8559 15.7824 31.9427L20.9803 32.5912C21.6951 32.6831 22.1138 33.2907 21.9146 33.9443L20.4186 38.8051C20.2144 39.4587 19.4689 39.9233 18.7541 39.8314L16.1551 39.5046C15.4403 39.4178 14.8276 38.7847 14.797 38.1005L14.5417 33.0252Z" fill="#546266"/>
<path d="M25.3808 32.9946C24.8753 32.535 24.9212 31.7947 25.4931 31.3556L29.6289 28.1388C30.2008 27.6946 30.9258 27.8325 31.2475 28.435L33.6269 32.9282C33.9486 33.5358 33.7443 34.3936 33.1776 34.8327L31.1097 36.4411C30.5429 36.8853 29.6596 36.87 29.1541 36.4104L25.3808 32.9946Z" fill="#546266"/>
<path d="M33.0246 25.3101C32.3404 25.3459 31.8554 24.7842 31.9422 24.0694L32.5957 18.8715C32.6876 18.1567 33.2953 17.738 33.9488 17.9371L38.8097 19.4332C39.4632 19.6323 39.9279 20.3829 39.836 21.0977L39.5092 23.6967C39.4173 24.4115 38.7842 25.0242 38.1 25.0548L33.0246 25.3101Z" fill="#546266"/>
<path d="M32.999 14.4702C32.5395 14.9757 31.7991 14.9298 31.36 14.3579L28.1433 10.2221C27.6991 9.65534 27.8369 8.92519 28.4394 8.60351L32.9378 6.22414C33.5454 5.90247 34.4032 6.1067 34.8423 6.67346L36.4506 8.74137C36.8949 9.30813 36.8795 10.1915 36.42 10.697L32.999 14.4702Z" fill="#546266"/>
<path d="M25.31 6.8266C25.3458 7.51079 24.7841 7.99586 24.0693 7.90906L18.8714 7.2555C18.1566 7.16359 17.7379 6.55598 17.937 5.90242L19.4331 1.04156C19.6322 0.387995 20.3828 -0.0766461 21.0976 0.015261L23.6965 0.342042C24.4114 0.428843 25.0241 1.06709 25.0547 1.75128L25.31 6.8266Z" fill="#546266"/>
<path d="M14.4693 6.85213C14.9748 7.31167 14.9288 8.05203 14.3569 8.49114L10.2211 11.7079C9.65436 12.147 8.92421 12.0142 8.60254 11.4117L6.22316 6.91851C5.90149 6.3109 6.10573 5.4531 6.67249 5.01399L8.7404 3.40562C9.30716 2.9614 10.1905 2.97672 10.696 3.44136L14.4693 6.85213Z" fill="#546266"/>
<path d="M22.5976 29.6604C17.221 31.1361 11.6658 27.9755 10.1851 22.5989C8.70943 17.2224 11.87 11.6671 17.2466 10.1864C22.6231 8.71074 28.1784 11.8713 29.6591 17.2479C31.1399 22.6296 27.9742 28.1848 22.5976 29.6604ZM15.6791 4.46259C7.1368 6.80622 2.11765 15.6344 4.46128 24.1715C6.80491 32.7087 15.6331 37.7329 24.1702 35.3842C32.7074 33.0406 37.7316 24.2124 35.388 15.6753C33.0444 7.1381 24.2162 2.11896 15.6791 4.46259Z" fill="#546266"/>
<path d="M21.1837 24.5085C18.6512 25.2029 16.0369 23.7171 15.3425 21.1845C14.6481 18.652 16.134 16.0377 18.6665 15.3433C21.1991 14.6489 23.8133 16.1348 24.5077 18.6673C25.2021 21.1948 23.7163 23.8141 21.1837 24.5085ZM16.6241 7.89886C9.98128 9.72169 6.07523 16.5892 7.89806 23.2269C9.72088 29.8698 16.5884 33.7758 23.2312 31.953C29.8741 30.1302 33.7801 23.2627 31.9522 16.6249C30.1243 9.9872 23.267 6.07604 16.6241 7.89886Z" fill="#AABBC1"/>
<path d="M21.1841 24.5085C18.6515 25.2029 16.0373 23.717 15.3428 21.1845C14.6484 18.6519 16.1343 16.0377 18.6668 15.3433C21.1994 14.6489 23.8136 16.1347 24.508 18.6673C25.2024 21.1947 23.7166 23.8141 21.1841 24.5085ZM17.4108 10.7632C12.3508 12.1521 9.37399 17.3806 10.7628 22.4457C12.1516 27.5057 17.3801 30.4824 22.4452 29.0936C27.5052 27.6997 30.4769 22.4661 29.0881 17.4061C27.6992 12.3461 22.4707 9.37443 17.4108 10.7632Z" fill="#546266"/>
<path d="M35.2305 36.87C35.7462 36.8445 36.1087 37.2632 36.0424 37.7993L35.5522 41.7002C35.4858 42.2363 35.0263 42.5529 34.5361 42.3997L30.8905 41.2764C30.4003 41.1233 30.0531 40.5616 30.1195 40.0255L30.3645 38.075C30.4309 37.5389 30.9058 37.0793 31.4215 37.0538L35.2305 36.87Z" fill="#546266"/>
<path d="M35.2512 44.9987C35.5984 44.6158 36.1498 44.6566 36.4817 45.0804L38.8917 48.1848C39.2236 48.6137 39.1215 49.1601 38.6671 49.4L35.2971 51.1871C34.8427 51.4271 34.1994 51.2739 33.8675 50.8501L32.6625 49.2979C32.3306 48.869 32.3408 48.2104 32.688 47.8274L35.2512 44.9987Z" fill="#546266"/>
<path d="M41.0158 50.7327C40.9902 50.217 41.4089 49.8545 41.945 49.9209L45.846 50.411C46.3821 50.4774 46.6987 50.9369 46.5455 51.4271L45.4222 55.0728C45.269 55.5629 44.7074 55.9101 44.1712 55.8438L42.2208 55.5987C41.6846 55.5323 41.2251 55.0574 41.1996 54.5417L41.0158 50.7327Z" fill="#546266"/>
<path d="M49.1499 50.7123C48.767 50.3651 48.8078 49.8137 49.2316 49.4818L52.336 47.0718C52.7649 46.7399 53.3112 46.842 53.5512 47.2964L55.3383 50.6664C55.5783 51.1208 55.4251 51.7641 55.0013 52.096L53.4491 53.301C53.0202 53.6329 52.3615 53.6227 51.9786 53.2755L49.1499 50.7123Z" fill="#546266"/>
<path d="M54.8838 44.9476C54.3732 44.9732 54.0056 44.5545 54.072 44.0184L54.5621 40.1174C54.6285 39.5813 55.088 39.2647 55.5782 39.4179L59.2239 40.5412C59.714 40.6893 60.0612 41.256 59.9949 41.7922L59.7498 43.7426C59.6834 44.2788 59.2085 44.7383 58.6928 44.7638L54.8838 44.9476Z" fill="#546266"/>
<path d="M54.8582 36.8138C54.511 37.1968 53.9595 37.1559 53.6276 36.7321L51.2176 33.6277C50.8858 33.1988 50.9879 32.6576 51.4423 32.4125L54.8122 30.6254C55.2667 30.3854 55.91 30.5386 56.2419 30.9624L57.4469 32.5146C57.7788 32.9384 57.7686 33.6022 57.4214 33.98L54.8582 36.8138Z" fill="#546266"/>
<path d="M49.0977 31.0799C49.1232 31.5956 48.7045 31.9581 48.1684 31.8917L44.2674 31.4016C43.7313 31.3352 43.4147 30.8756 43.5679 30.3855L44.6912 26.7398C44.8444 26.2497 45.4061 25.9025 45.9422 25.9688L47.8927 26.2139C48.4288 26.2803 48.8883 26.7551 48.9139 27.2708L49.0977 31.0799Z" fill="#546266"/>
<path d="M40.9642 31.1054C41.3471 31.4526 41.3063 32.004 40.8825 32.3359L37.778 34.7459C37.3491 35.0778 36.8079 34.9757 36.5628 34.5213L34.7809 31.1513C34.5409 30.6969 34.6941 30.0536 35.1178 29.7217L36.6701 28.5167C37.099 28.1848 37.7576 28.195 38.1355 28.5422L40.9642 31.1054Z" fill="#546266"/>
<path d="M47.0615 48.2103C43.0278 49.3183 38.8614 46.9441 37.7534 42.9155C36.6454 38.8818 39.0145 34.7153 43.0482 33.6073C47.0819 32.4993 51.2484 34.8736 52.3564 38.9022C53.4695 42.9308 51.0952 47.1023 47.0615 48.2103ZM41.8739 29.3081C35.471 31.0697 31.7028 37.687 33.4644 44.0898C35.2259 50.4927 41.8432 54.2609 48.2461 52.4993C54.649 50.7378 58.4171 44.1205 56.6556 37.7176C54.894 31.3148 48.2767 27.5517 41.8739 29.3081Z" fill="#546266"/>
<path d="M45.9986 44.3401C44.0992 44.8609 42.1385 43.7478 41.6177 41.8484C41.0969 39.9489 42.21 37.9883 44.1094 37.4674C46.0088 36.9466 47.9695 38.0597 48.4903 39.9592C49.0162 41.8586 47.898 43.8192 45.9986 44.3401ZM42.5776 31.8866C37.5942 33.255 34.6685 38.4018 36.0369 43.3852C37.4053 48.3687 42.5521 51.2944 47.5355 49.926C52.5189 48.5576 55.4446 43.4108 54.0762 38.4274C52.7078 33.4491 47.561 30.5183 42.5776 31.8866Z" fill="#AABBC1"/>
<path d="M45.999 44.34C44.0996 44.8609 42.1389 43.7478 41.6181 41.8483C41.0973 39.9489 42.2104 37.9882 44.1098 37.4674C46.0092 36.9466 47.9699 38.0597 48.4907 39.9591C49.0166 41.8586 47.8984 43.8192 45.999 44.34ZM43.1703 34.0362C39.3766 35.0779 37.1453 38.9992 38.1869 42.7981C39.2285 46.5918 43.1499 48.8231 46.9487 47.7815C50.7424 46.7398 52.9737 42.8185 51.9321 39.0197C50.8854 35.2208 46.964 32.9895 43.1703 34.0362Z" fill="#546266"/>
</svg>
