<svg width="50" height="50" viewBox="0 0 50 50" fill="none" xmlns="http://www.w3.org/2000/svg">
<path fill-rule="evenodd" clip-rule="evenodd" d="M32.4043 0C36.9971 0 41.0444 1.68139 44.551 5.04913C47.9187 8.55574 49.6001 12.603 49.6001 17.1958C49.6001 21.7886 47.9187 25.8359 44.551 29.3474C41.3271 32.4325 37.6469 34.099 33.5103 34.342C29.3738 34.59 25.5548 33.4492 22.0481 30.9247L19.4194 33.5534L16.0517 30.1856L18.6804 27.5569C16.0864 24.0503 14.9308 20.2114 15.2085 16.0402C15.4912 11.8689 17.1726 8.20359 20.2576 5.04913C23.7642 1.68139 27.8115 0 32.4043 0ZM32.3501 3.15448C36.3478 3.22392 39.661 4.59284 42.2897 7.25627C44.9184 9.92467 46.3072 13.218 46.446 17.1413C46.3022 21.1389 44.9184 24.4521 42.2897 27.0808C39.661 29.7145 36.3478 31.0983 32.3501 31.2371C28.4269 31.0933 25.1286 29.7095 22.4652 27.0808C19.8017 24.4521 18.4328 21.1389 18.3634 17.1413C18.4328 13.218 19.8017 9.91971 22.4652 7.25627C25.1286 4.59284 28.4219 3.22392 32.3501 3.15448Z" fill="#B3B3B3"/>
<path d="M42.2897 7.25634C39.661 4.5929 36.3478 3.22398 32.3501 3.15454C28.4219 3.22398 25.1286 4.5929 22.4652 7.25634C19.8017 9.91977 18.4328 13.2181 18.3634 17.1413C18.4328 21.139 19.8017 24.4521 22.4652 27.0808C25.1286 29.7096 28.4269 31.0934 32.3501 31.2372C36.3478 31.0983 39.661 29.7145 42.2897 27.0808C44.9184 24.4521 46.3022 21.139 46.446 17.1413C46.3072 13.2181 44.9184 9.92473 42.2897 7.25634Z" fill="white" fill-opacity="0.2"/>
<path d="M41.8182 25.5581C38.9465 28.291 35.6482 29.6599 31.9332 29.6599C28.2183 29.6599 24.925 28.291 22.0483 25.5581C20.5057 24.0156 19.3848 22.2647 18.6805 20.3006C19.241 22.8947 20.5057 25.2109 22.4649 27.2444C25.3416 29.9773 28.6548 31.3462 32.4044 31.3462C36.1541 31.3462 39.4673 29.9773 42.344 27.2444C44.3081 25.2109 45.5679 22.8996 46.1283 20.3006C46.6938 17.7066 46.5152 15.1424 45.6026 12.6228C46.0936 14.8696 46.0242 17.1263 45.3943 19.4079C44.7644 21.6844 43.5691 23.7329 41.8182 25.5581Z" fill="#999999"/>
<path d="M4.32164 49.3805C5.19953 49.6235 5.84431 49.5392 6.2659 49.1176L20.0444 34.1785C20.4659 33.757 20.6395 33.2163 20.5701 32.5468C20.5007 31.8821 20.0791 31.1282 19.3103 30.2851C18.4671 29.5163 17.7182 29.0749 17.0486 28.9707C16.384 28.8665 15.8384 29.06 15.4168 29.551L0.378559 43.3295C-0.0430279 43.751 -0.112469 44.3809 0.170242 45.2241C0.452953 46.0673 0.978697 46.9055 1.74747 47.7487C2.59065 48.5919 3.4487 49.1325 4.32164 49.3805Z" fill="#FFBC1F"/>
<path d="M3.42884 40.4922L9.00371 46.1713L15.8384 38.8059L10.7942 33.7617L3.42884 40.4922Z" fill="#954D0E"/>
</svg>
