<svg width="39" height="39" viewBox="0 0 39 39" fill="none" xmlns="http://www.w3.org/2000/svg">
<g clip-path="url(#clip0)">
<path d="M32.8772 20.2673C32.3341 20.026 32.3118 19.5367 32.3761 19.1968L33.6925 14.6005L29.3043 15.4987C29.1521 15.5173 28.734 15.4835 28.5228 14.6175L28.1429 13.0477L25.0922 16.5446C25.0922 16.5446 23.1121 18.6867 23.7449 15.4079L25.0974 8.41378L22.6517 9.62609C22.5122 9.68025 22.0329 9.74749 21.401 8.53201L19.1929 4.27711L16.9438 8.51575C16.2999 9.72801 15.815 9.66441 15.68 9.60336L13.249 8.37656L14.5318 15.3871C15.1321 18.669 13.174 16.5146 13.174 16.5146L10.1561 12.9956L9.75946 14.5632C9.54115 15.4267 9.12442 15.4569 8.96941 15.4357L4.59258 14.5063L5.87307 19.1118C5.92399 19.4474 5.90227 19.9353 5.35452 20.1704L3.98158 20.7703C3.98158 20.7703 8.98731 24.828 10.6288 26.2133C10.9486 26.479 11.7217 27.2635 11.4493 28.1014L10.8534 29.9308L17.7363 28.9026C18.0919 28.8739 20.0659 28.8808 20.4186 28.9118L27.2956 29.9927L26.7182 28.1571C26.4516 27.3211 27.2358 26.5396 27.5575 26.2748C29.2126 24.9039 34.2563 20.8777 34.2563 20.8777L32.8772 20.2673Z" fill="#B53A25"/>
<path d="M31.5958 21.2319C30.7054 21.2981 29.8136 21.3429 28.9233 21.3778C27.4484 21.4316 25.9792 21.4627 24.5058 21.4781C25.1476 21.004 25.788 20.5341 26.4327 20.0657L30.1099 17.3974L31.9385 16.0463C32.5538 15.6027 33.1395 15.1196 33.6919 14.5998C33.114 15.0878 32.504 15.5363 31.8661 15.9425L29.9749 17.1828L26.3279 19.531C26.5719 18.5481 26.8173 17.5665 27.0812 16.5836L27.5733 14.7983C27.7347 14.2022 27.9294 13.6157 28.1565 13.0414C27.8851 13.6049 27.6462 14.1834 27.4411 14.7742L26.8267 16.5255C26.4403 17.6593 26.0696 18.7974 25.7046 19.9383C24.5804 20.6674 23.462 21.3965 22.3463 22.1597C21.7188 22.5883 21.0941 23.0226 20.4793 23.4811C20.1762 23.7046 19.8773 23.9352 19.5813 24.1801L19.4277 17.1943C20.1355 15.6381 20.9671 14.1412 21.9146 12.7179C22.8917 11.2294 23.9542 9.79873 25.0968 8.43302C23.8887 9.74729 22.7574 11.1301 21.7085 12.5745C20.8678 13.7265 20.1006 14.9304 19.4115 16.1788L19.1885 5.43414L18.8583 16.1551C18.1807 14.9027 17.4255 13.694 16.5971 12.536C15.5634 11.0838 14.4457 9.69328 13.2497 8.37162C14.3789 9.74505 15.4272 11.1831 16.3893 12.6784C17.3211 14.1099 18.1356 15.6146 18.8247 17.1777L18.6085 24.1695C18.3143 23.9237 18.0173 23.6921 17.7174 23.4634C17.1062 23.0031 16.485 22.5641 15.8624 22.1295C14.7594 21.3652 13.6436 20.6251 12.5263 19.8894C12.1727 18.7443 11.81 17.6035 11.4383 16.467L10.841 14.711C10.645 14.125 10.4171 13.5502 10.1583 12.9893C10.378 13.5657 10.566 14.1538 10.7215 14.7509L11.2021 16.544C11.4531 17.5237 11.6884 18.5076 11.9236 19.4916L8.29892 17.1195L6.41409 15.8609C5.77987 15.4502 5.17397 14.9975 4.60045 14.5056C5.14846 15.0284 5.73004 15.5149 6.34147 15.962L8.14942 17.3258L11.7995 20.0194C12.4377 20.4924 13.0773 20.9669 13.7112 21.4443C12.2392 21.4185 10.7672 21.3813 9.2953 21.3128C8.40218 21.2737 7.51191 21.2232 6.61882 21.1472C5.72689 21.0963 4.84079 20.9719 3.96953 20.7753C4.83065 21.0131 5.71007 21.1794 6.59881 21.2723C7.4876 21.3868 8.37926 21.4814 9.26665 21.5631C10.9609 21.7182 12.6589 21.8457 14.3607 21.9458C14.7075 22.21 15.0586 22.4729 15.4011 22.7414C15.964 23.179 16.5226 23.6237 17.064 24.0798C16.0905 25.0221 15.1638 25.9942 14.2059 26.9379C13.6735 27.4703 13.1341 27.9955 12.5818 28.5051C12.0369 29.0246 11.4536 29.5024 10.837 29.9345C11.4777 29.5353 12.0884 29.0898 12.6643 28.6018C13.2463 28.122 13.8156 27.6238 14.3793 27.1227C15.4011 26.2173 16.4003 25.2807 17.4265 24.3966C17.6141 24.5586 17.8059 24.722 17.9836 24.8882C18.1878 25.0775 18.3791 25.2802 18.5562 25.4951L18.2757 34.5406L19.789 34.5451L19.6001 25.4971C19.7779 25.2831 19.9706 25.0819 20.1766 24.895C20.3574 24.7284 20.5495 24.5676 20.7402 24.4053C21.7564 25.2962 22.7469 26.2411 23.7659 27.1463C24.3244 27.6507 24.8872 28.1537 25.4656 28.6354C26.0374 29.1318 26.6456 29.5849 27.285 29.9907C26.674 29.5528 26.0964 29.0703 25.5567 28.5471C25.011 28.0327 24.4767 27.5041 23.9481 26.9698C22.9988 26.0205 22.0851 25.0385 21.1202 24.0907C21.6667 23.6379 22.2246 23.2023 22.7953 22.7624C23.1425 22.4975 23.494 22.237 23.8455 21.9736C25.5484 21.8831 27.2476 21.7669 28.943 21.6252C29.8334 21.5477 30.7238 21.4616 31.6127 21.3542C32.5054 21.2633 33.3893 21.0999 34.2556 20.8657C33.3807 21.0621 32.491 21.1846 31.5958 21.2319Z" fill="#F74700"/>
</g>
<defs>
<clipPath id="clip0">
<rect width="27" height="27" fill="white" transform="translate(38.1838 19.0918) rotate(135)"/>
</clipPath>
</defs>
</svg>
